<svg width="508.95" height="75.15687055726218" viewBox="0 0 370.31250000000006 54.68420989927528" class="css-1j8o68f"><defs id="SvgjsDefs2974"></defs><g id="SvgjsG2975" featurekey="symbolFeature-0" transform="matrix(0.19320791959762573,0,0,0.19320791959762573,-1.637437029485273,-1.6470974624431887)" fill="#0967a3"><g xmlns="http://www.w3.org/2000/svg"><path d="M202.9,120.4L156,82.2c-3.5-2.9-8.6-2.9-12.1,0L97,120.5c-1.9,1.5-1.9,4.5,0,6l14.7,12c2.1,1.7,5.1,1.7,7.3,0l30.9-25.2   l30.9,25.3c2.1,1.7,5.1,1.7,7.3,0l14.7-12C204.8,124.9,204.8,122,202.9,120.4z"></path><path d="M249.9,158.9l40.2-32.7c1.9-1.5,1.9-4.5,0-6L156,10.7c-3.5-2.9-8.6-2.9-12.1,0L9.9,120c-1.9,1.5-1.9,4.5,0,6l40.2,32.8   L9.9,191.6c-1.9,1.5-1.9,4.5,0,6L124,290.7c2.5,2,6.2,0.3,6.2-3V193c0-2.9-1.3-5.7-3.6-7.5L94,158.9L72,141l-19-15.7   c-1.4-1.1-1.4-3.3,0-4.5l93.4-76.2c2.1-1.7,5.1-1.7,7.3,0l93.4,76.2c1.4,1.1,1.4,3.3,0,4.5L228,140.9l-22.1,18l-32.6,26.6   c-2.3,1.8-3.6,4.6-3.6,7.5v94.7c0,3.2,3.8,5,6.2,3L290,197.6c1.9-1.5,1.9-4.5,0-6L249.9,158.9z M73.9,178.3l26.7,21.8   c1.3,1.1,2.2,2.8,2.2,4.5v28.8c0,1.6-1.9,2.6-3.1,1.5L53,196.8c-1.4-1.1-1.4-3.3,0-4.5l17.3-14.1C71.3,177.3,72.8,177.3,73.9,178.3   z M197.3,233.4v-28.8c0-1.7,0.8-3.4,2.2-4.5l26.7-21.8c1-0.9,2.5-0.9,3.6,0l17.3,14.1c1.4,1.1,1.4,3.3,0,4.5L200.4,235   C199.1,235.9,197.3,235.1,197.3,233.4z"></path></g></g><g id="SvgjsG2976" featurekey="nameFeature-0" transform="matrix(0.8526968955993652,0,0,0.8526968955993652,73.66689548052838,10.867618466741126)" fill="#31afff"><path d="M31.953 38.5937 l6.5625 0 l0 -27.422 l-6.5625 9.6094 l0 17.813 z M38.516 1.4059999999999988 l-7.0313 0 l-11.484 17.813 l-11.406 -17.813 l-7.0313 0 l0 37.188 l6.5625 0 l0 -26.406 l11.719 17.578 l0.23438 0 l10.234 -15.156 c0.052109 -0.20836 2.7865 -4.6094 8.2031 -13.203 z M64.922 1.4059999999999988 c-2.8646 0 -5.5209 0.4686 -7.9688 1.4061 c-2.3959 0.9375 -4.4792 2.2396 -6.2501 3.9063 c-1.7188 1.5625 -3.0729 3.5416 -4.0625 5.9375 c-0.83336 2.0313 -1.3021 4.2448 -1.4063 6.6406 l0 2.3438 l6.875 0 l0 -2.3438 c0.10414 -1.7709 0.39063 -3.2031 0.85938 -4.2969 c0.625 -1.5104 1.4844 -2.8645 2.5781 -4.0624 c1.3021 -1.1979 2.6563 -2.0833 4.0625 -2.6562 c1.6146 -0.625 3.3855 -0.9375 5.3126 -0.9375 l9.8438 0 l0 -5.9375 l-9.8438 0 z M67.89099999999999 18.984 l0.000076294 1.4843 l0.078125 0 c-0.10414 1.6666 -0.41664 3.2031 -0.9375 4.6094 c-0.67711 1.6146 -1.5365 2.9427 -2.5781 3.9844 c-1.1459 1.1459 -2.5 2.0313 -4.0625 2.6563 c-1.6146 0.625 -3.3855 0.9375 -5.3126 0.9375 l-9.8438 0 l0 5.9375 l9.8438 0 c2.8646 0 5.5209 -0.46875 7.9688 -1.4063 c2.3959 -0.9375 4.4792 -2.2396 6.2501 -3.9063 c1.8229 -1.8229 3.177 -3.802 4.0624 -5.9374 c0.9375 -2.0834 1.4063 -4.375 1.4063 -6.875 l0 -1.4844 l-6.875 0 z M111.953 38.5937 l6.5625 0 l0 -27.422 l-6.5625 9.6094 l0 17.813 z M118.51599999999999 1.4059999999999988 l-7.0313 0 l-11.484 17.813 l-11.406 -17.813 l-7.0313 0 l0 37.188 l6.5625 0 l0 -26.406 l11.719 17.578 l0.23438 0 l10.234 -15.156 c0.052109 -0.20836 2.7865 -4.6094 8.2031 -13.203 z  M187.49975 38.5937 l-10.078 -14.063 c1.3541 -0.41664 2.552 -0.91141 3.5937 -1.4843 c1.1459 -0.72914 2.0834 -1.5364 2.8125 -2.4218 c0.83336 -0.98961 1.4323 -2.0573 1.797 -3.2032 c0.46875 -1.25 0.70313 -2.6563 0.70313 -4.2188 c0 -1.8229 -0.3125 -3.4635 -0.9375 -4.9219 c-0.625 -1.4063 -1.5365 -2.6302 -2.7344 -3.6719 c-1.1459 -0.98961 -2.6042 -1.7709 -4.3751 -2.3438 c-1.8229 -0.57289 -3.75 -0.85938 -5.7813 -0.85938 l-16.563 0 l0 5.9375 l16.016 0 c2.4479 0 4.3489 0.52086 5.703 1.5625 s2.0313 2.6041 2.0313 4.6875 c0 1.9271 -0.67711 3.4375 -2.0313 4.5313 c-1.3541 1.1459 -3.2291 1.7188 -5.625 1.7188 l-16.094 0 l0 18.75 l6.4844 0 l0 -12.969 l8.2031 0 l9.1406 12.969 l7.7344 0 l0 0 z M209.06275 32.6562 c-0.78125 -0.15625 -1.5105 -0.3907 -2.1876 -0.7032 c-1.4584 -0.67711 -2.7344 -1.6146 -3.8281 -2.8125 c-1.0416 -1.0938 -1.875 -2.4479 -2.5 -4.0625 c-0.57289 -1.6146 -0.85938 -3.2552 -0.85938 -4.9219 l0 -0.15625 l0 -0.23438 c0 -1.7188 0.28648 -3.3854 0.85938 -5 c0.67711 -1.6666 1.5105 -2.9948 2.5001 -3.9844 c1.0416 -1.1979 2.2916 -2.1094 3.75 -2.7344 c0.88539 -0.41664 1.6406 -0.67703 2.2656 -0.78117 l0 -5.8594 c-1.8229 0.26039 -3.4375 0.70313 -4.8438 1.3281 c-2.2916 0.98961 -4.2448 2.3177 -5.8594 3.9844 s-2.8906 3.6458 -3.8281 5.9374 s-1.4063 4.6875 -1.4063 7.1875 l0 0.15625 l0 0.23438 c0 2.5521 0.46875 4.948 1.4063 7.1876 c0.83336 2.2396 2.0834 4.1927 3.75 5.8594 c1.6666 1.7188 3.6198 3.0469 5.8594 3.9844 c1.4063 0.625 3.0469 1.0677 4.9219 1.3281 l0 -5.9375 z M230.31275 20 l0.000076294 -0.23438 c0 -2.5521 -0.46875 -4.948 -1.4063 -7.1876 c-0.9375 -2.2916 -2.2135 -4.2708 -3.8281 -5.9374 c-1.5625 -1.6666 -3.4896 -2.9688 -5.7813 -3.9063 c-1.3021 -0.625 -2.8906 -1.0677 -4.7656 -1.3281 l0 5.9375 l0.9375 0.3125 c0.46875 0.15625 0.83336 0.28648 1.0938 0.39063 c1.4584 0.67711 2.7344 1.6146 3.8281 2.8125 c1.0416 1.0938 1.875 2.4479 2.5 4.0625 c0.57289 1.6146 0.85938 3.2552 0.85938 4.9219 l0 0.15625 l0 0.23438 c0 1.7188 -0.28648 3.3854 -0.85938 5 c-0.67711 1.6666 -1.5105 2.9948 -2.5001 3.9844 c-1.0416 1.1979 -2.2916 2.1094 -3.75 2.7344 c-0.67711 0.3125 -1.3802 0.54688 -2.1094 0.70313 l0 5.9375 c1.5625 -0.20836 3.125 -0.65109 4.6875 -1.3282 c2.1354 -0.88539 4.0885 -2.2135 5.8594 -3.9844 c1.7188 -1.8229 2.9948 -3.802 3.8281 -5.9374 c0.9375 -2.2916 1.4063 -4.6875 1.4063 -7.1875 l0 -0.15625 z M266.32775 25 c-0.36461 -0.98961 -0.88531 -1.8488 -1.5624 -2.578 c-0.46875 -0.52086 -1.224 -1.1198 -2.2656 -1.797 c-1.1459 -0.57289 -2.1615 -1.0156 -3.0469 -1.3281 c0.625 -0.36461 1.3021 -0.78125 2.0313 -1.25 c0.72914 -0.625 1.276 -1.224 1.6406 -1.7969 c0.46875 -0.625 0.85938 -1.3802 1.1719 -2.2656 c0.3125 -0.9375 0.46875 -1.9531 0.46875 -3.0469 c0 -2.9166 -1.0938 -5.2344 -3.2813 -6.9531 s-5.1563 -2.5781 -8.9063 -2.5781 l-14.453 0 l0 5.7813 l13.672 0 c1.9791 0 3.5938 0.41664 4.8438 1.25 c1.0938 0.83336 1.6406 2.0313 1.6406 3.5938 c0 1.7709 -0.625 3.0469 -1.875 3.8281 c-1.3021 0.83336 -2.9948 1.25 -5.0782 1.25 l-13.203 0 l0 5.4688 l14.609 0 c2.5 0 4.401 0.44273 5.7031 1.3281 c1.25 0.9375 1.875 2.1875 1.875 3.75 c0 1.6666 -0.625 2.9427 -1.875 3.828 c-1.3021 0.88539 -3.0469 1.3281 -5.2344 1.3281 l-15.078 0 l0 5.7813 l15 0 c2.0313 0 3.9063 -0.23438 5.625 -0.70313 c1.7709 -0.52086 3.2031 -1.1719 4.2969 -1.9531 s2.0313 -1.849 2.8125 -3.2031 c0.625 -1.25 0.9375 -2.7084 0.9375 -4.375 c0 -1.3021 -0.15625 -2.4219 -0.46875 -3.3594 z M294.99975 16.875 l0 -15.547 l-6.5625 0 l0 37.344 l6.5625 0 l0 -21.797 z M315.54685 38.5937 l6.4844 0 l0 -19.922 l-6.4844 -9.1406 l0 29.063 z M341.48475 1.4059999999999988 l0 25.703 l-18.359 -25.703 l-7.0313 0 l26.406 37.188 l5.3906 0 l0 -37.188 l-6.4063 0 z"></path></g></svg>