<svg width="280" height="172.71029623023517" viewBox="0 0 280 172.71029623023517" class="css-1j8o68f"><defs id="SvgjsDefs2183"><linearGradient id="SvgjsLinearGradient2188"><stop id="SvgjsStop2189" stop-color="#8f5e25" offset="0"></stop><stop id="SvgjsStop2190" stop-color="#fbf4a1" offset="0.5"></stop><stop id="SvgjsStop2191" stop-color="#8f5e25" offset="1"></stop></linearGradient><linearGradient id="SvgjsLinearGradient2192"><stop id="SvgjsStop2193" stop-color="#8f5e25" offset="0"></stop><stop id="SvgjsStop2194" stop-color="#fbf4a1" offset="0.5"></stop><stop id="SvgjsStop2195" stop-color="#8f5e25" offset="1"></stop></linearGradient></defs><g id="SvgjsG2184" featurekey="symbolFeature-0" transform="matrix(1.038661241531372,0,0,1.038661241531372,87.86485882395276,-10.62550412018684)" fill="url(#SvgjsLinearGradient2188)"><g xmlns="http://www.w3.org/2000/svg"><path fill-rule="evenodd" clip-rule="evenodd" d="M80.11,49.695c0.003,5.951,1.481,10.771,3.303,10.771   c1.823,0,3.302-4.824,3.305-10.768c-0.003-5.951-1.479-10.773-3.303-10.773C81.591,38.926,80.107,43.748,80.11,49.695z"></path><path fill-rule="evenodd" clip-rule="evenodd" d="M39.138,14.154c-15.075,6.26-25.529,19.93-25.529,35.779   c-0.004,15.852,10.454,29.52,25.536,35.777C30.504,78.232,24.764,65,24.764,49.934S30.508,21.637,39.138,14.154z"></path><path fill-rule="evenodd" clip-rule="evenodd" d="M49.349,10.23c-7.066,0-12.803,17.854-12.803,39.857   c0,22.016,5.736,39.859,12.808,39.861c3.491-0.002,6.66-4.367,8.969-11.438c1.954,4.756,4.414,7.598,7.084,7.598   c6.367,0.002,11.532-16.066,11.527-35.883c0.005-19.816-5.156-35.887-11.521-35.879c-2.651,0-5.093,2.797-7.041,7.484   C56.057,14.668,52.871,10.234,49.349,10.23z M75.225,50.227c0.005,11.121-2.764,20.143-6.174,20.143   c-3.412,0-6.176-9.023-6.176-20.139c0-11.127,2.764-20.146,6.176-20.15C72.465,30.084,75.229,39.102,75.225,50.227z M57.792,23.318   c-2.395,6.576-3.907,16.191-3.907,26.908c-0.001,10.623,1.484,20.166,3.841,26.736c-1.15,1.559-2.418,2.424-3.748,2.424   c-5.202-0.004-9.414-13.117-9.414-29.299c0-16.174,4.212-29.293,9.407-29.293C55.333,20.797,56.626,21.701,57.792,23.318z"></path></g></g><g id="SvgjsG2185" featurekey="nameFeature-0" transform="matrix(2.374329090118408,0,0,2.374329090118408,-4.938607280877709,78.21200014362364)" fill="url(#SvgjsLinearGradient2192)"><path d="M5.16 36.52 l-0.08 0 c-0.08 0 -0.16 -0.04 -0.2 -0.08 c-0.08 -0.08 -0.12 -0.12 -0.2 -0.12 l-0.28 0.16 l-0.12 -0.04 c-0.08 -0.04 -0.16 -0.12 -0.16 -0.2 c0 -0.16 -0.12 -0.24 -0.32 -0.24 c-0.16 0 -0.52 -0.2 -0.56 -0.28 c0 -0.04 -0.12 -0.2 -0.28 -0.4 s-0.28 -0.36 -0.28 -0.4 s-0.04 -0.08 -0.08 -0.12 c-0.08 -0.08 -0.12 -0.12 -0.12 -0.16 l0.12 -0.28 l-0.12 -0.16 l0.04 -0.04 c0.04 0 0.04 -0.04 0.04 -0.12 c-0.04 -0.08 -0.04 -0.2 -0.04 -0.28 c-0.04 -0.12 -0.04 -0.2 -0.08 -0.24 l-0.08 -0.44 c0 -0.24 -0.04 -0.56 -0.08 -0.72 l-0.04 -0.32 l0 -0.2 c0 -0.04 0 -0.16 0.04 -0.24 l0.08 -0.12 l-0.12 0.04 c-0.04 0 -0.08 0 -0.08 -0.04 l0.12 -0.12 l-0.04 -0.04 c0 -0.04 -0.04 -0.44 -0.04 -0.92 s-0.04 -0.88 -0.04 -0.92 l0.04 -0.32 l-0.08 -0.2 l0.04 -0.16 c0.04 -0.12 0.04 -0.24 0.04 -0.28 c-0.04 -0.04 -0.12 -3 -0.12 -4.16 c0 -0.76 0.04 -0.92 0.32 -0.92 l0.16 0 c0.24 0 0.68 0.24 0.68 0.36 c0 0 0.04 0.04 0.12 0.04 l0.16 0.08 c0.08 0.16 0.44 0.36 0.52 0.36 l0.04 0 c0.04 0 0.08 0.04 0.12 0.12 s0.12 0.16 0.16 0.16 c0.08 0 0.12 0.12 0.16 0.24 c0 0.08 0.08 0.24 0.16 0.28 c0.12 0.12 0.24 0.76 0.24 1.92 c0 0.6 0.04 0.84 0.08 0.84 l0.12 0.04 l-0.04 0.08 l-0.16 0.24 c0 0.16 0 0.2 0.08 0.24 l0.04 0 c0.12 0 0.36 -0.2 0.36 -0.36 l0 -0.08 c0 -0.04 0 -0.08 0.04 -0.08 c0.04 -0.04 0.04 -0.12 0.04 -0.16 c0 -0.08 0.04 -0.12 0.12 -0.12 c0.04 0 0.08 -0.04 0.08 -0.08 c-0.04 -0.04 -0.08 -0.08 -0.12 -0.08 c-0.08 0 -0.08 -0.04 -0.08 -0.08 l0.04 -0.16 l0.08 -0.08 l-0.04 -0.04 l-0.08 0 c0 -0.08 0.16 -0.12 0.28 -0.12 l0.04 0 c0.08 0 0.2 -0.2 0.2 -0.28 l-0.04 -0.08 l0.04 0 c0.08 0 0.44 -0.56 0.52 -0.8 c0.08 -0.16 0.24 -0.44 0.48 -0.76 l0.16 -0.28 c0 -0.08 0.04 -0.16 0.08 -0.24 l0.16 -0.32 l-0.08 0.04 c-0.04 0.04 -0.08 0.04 -0.12 0.04 c-0.08 0 -0.16 0.04 -0.2 0.12 l-0.12 0.08 l-0.04 -0.08 c0 -0.04 0 -0.04 0.04 -0.04 c0.04 -0.04 0.12 -0.08 0.12 -0.12 c0 -0.08 0.36 -0.64 0.56 -0.84 c0.08 -0.12 0.24 -0.24 0.32 -0.28 l0.48 -0.16 l0.4 0.08 c0.36 0.04 0.92 0.28 1.28 0.56 l0.24 0.12 c0.04 0 0.16 0.08 0.28 0.2 s0.28 0.24 0.36 0.28 c0.24 0.12 0.76 0.8 1.04 1.4 c0.2 0.4 0.24 0.52 0.24 0.76 c0 0.32 0.04 0.56 0.12 0.56 c0.04 0 0.04 0.08 0.04 0.16 l-0.04 0.12 l0.12 0 l0 0.04 c0 0.04 0 0.12 -0.08 0.24 l-0.08 0.2 c0 0.04 0 0.04 0.04 0.04 s0.08 -0.04 0.08 -0.12 s0.16 -0.28 0.28 -0.28 c0.08 0 0.2 -0.08 0.2 -0.12 l-0.04 -0.04 c-0.04 0 -0.08 0 -0.08 -0.04 s0.04 -0.08 0.08 -0.08 s0.12 -0.2 0.12 -0.32 l-0.04 -0.12 l-0.04 -0.04 c0 -0.04 0.04 -0.08 0.08 -0.08 s0.04 -0.04 0.04 -0.04 l0 -0.04 l0.04 -0.04 l0.04 0.04 c0.08 0 0.16 -0.16 0.16 -0.28 l0 -0.04 c0 -0.04 0.04 -0.2 0.12 -0.32 l0.12 -0.12 l0 0.04 c0 0.04 0 0.08 0.04 0.08 l0.04 0 c0.08 -0.04 0.36 -0.36 0.36 -0.52 l0 -0.08 l-0.2 0.16 l0.04 -0.16 c0.12 -0.16 0.24 -0.32 0.32 -0.32 l0.04 0 l-0.04 -0.04 c0 -0.08 0.36 -0.68 0.56 -0.84 l0.04 -0.04 l0 0.04 l-0.12 0.24 l-0.04 0.12 l0.08 -0.04 c0.08 -0.04 0.32 -0.36 0.32 -0.44 l-0.08 -0.08 c0 -0.04 0.04 -0.16 0.16 -0.28 l0.16 -0.16 l0 0.24 c0.04 0 0.08 -0.04 0.08 -0.12 c0 -0.04 0.04 -0.08 0.08 -0.08 c0.08 0 0.08 -0.04 0.08 -0.08 l-0.04 -0.16 c0 -0.16 0.28 -0.44 0.44 -0.44 l0.08 0 l-0.08 -0.24 l0.12 0 c0.04 0 0.04 0 0.04 -0.04 c0 -0.08 0.04 -0.12 0.08 -0.12 s0.08 -0.04 0.12 -0.08 l0.04 -0.04 l0.04 0 c0.04 0 0.2 0 0.36 -0.04 c0.12 -0.04 0.2 -0.04 0.28 -0.04 c0.12 0 0.24 0.04 0.4 0.08 c0.24 0.08 0.48 0.2 0.56 0.28 c0.28 0.24 0.64 0.52 1 0.76 c0.2 0.16 0.36 0.32 0.44 0.48 l0.12 0.28 l0.08 0.16 c0.04 0.04 0.08 0.08 0.08 0.12 l0.08 0.16 c0.24 0.32 0.4 0.88 0.4 1.72 l0 2.68 s0.04 0.4 0.04 0.88 l0.08 1.68 l0.04 0.92 l-0.08 -0.12 c-0.04 -0.04 -0.04 -0.08 -0.08 -0.08 l-0.04 0.12 l0.04 0.08 c0.04 0.04 0.04 0.16 0.04 0.32 l0 0.24 c0 0.28 0 0.44 0.04 0.52 l0.04 0.08 l-0.04 0.16 l-0.08 0.08 l-0.08 -0.04 c0 -0.04 -0.08 -0.04 -0.12 -0.04 s-0.08 0 -0.08 0.08 l0.08 0 c0.08 0 0.08 0 0.08 0.04 s0 0.04 -0.04 0.04 s-0.04 0.08 -0.04 0.2 s-0.04 0.16 -0.08 0.16 s-0.08 0 -0.08 -0.08 c-0.04 -0.04 -0.08 -0.08 -0.16 -0.08 c0 0 -0.04 0 -0.04 0.04 s-0.08 0.08 -0.12 0.12 c-0.08 0 -0.12 0.08 -0.12 0.12 s-0.04 0.08 -0.12 0.08 c-0.04 0 -0.04 0 -0.04 -0.04 l0.04 -0.16 l0.04 -0.08 l-0.08 -0.04 c-0.04 0 -0.08 -0.04 -0.12 -0.08 l-0.04 -0.08 l0 0.04 c0 0.04 -0.04 0.08 -0.12 0.08 l-0.12 0 c-0.12 0 -0.24 -0.04 -0.24 -0.08 s-0.08 -0.2 -0.24 -0.44 l-0.24 -0.44 c0 -0.04 -0.04 -0.08 -0.12 -0.16 c-0.08 -0.04 -0.16 -0.16 -0.2 -0.24 c-0.08 -0.2 -0.2 -0.96 -0.24 -1.28 c0 -0.08 0 -0.24 -0.04 -0.28 c-0.08 -0.24 -0.16 -1.84 -0.16 -3.24 l0.04 -1.44 c0 -0.24 0 -0.48 -0.04 -0.56 l0 -0.16 l-0.32 0.28 c0 0.04 -0.08 0.2 -0.2 0.36 l-0.2 0.32 c0 0.04 -0.16 0.16 -0.32 0.32 c-0.16 0.2 -0.32 0.36 -0.32 0.44 c0 0.2 -0.04 0.28 -0.08 0.28 s-0.16 0.16 -0.28 0.36 l-0.44 0.6 c-0.16 0.2 -0.28 0.4 -0.28 0.52 l0 0.08 l0.04 -0.04 c0 -0.04 0.08 -0.08 0.12 -0.08 s0.08 0.04 0.08 0.08 c0 0.08 -0.12 0.32 -0.28 0.56 c-0.4 0.6 -0.36 0.6 -0.76 1.36 c-0.24 0.44 -0.36 0.68 -0.4 0.68 l-0.04 0 l0.04 -0.16 c0 -0.04 0 -0.04 -0.04 -0.04 s-0.12 0.04 -0.2 0.16 l-0.04 0.16 l0.08 0.28 c0 0.04 0 0.04 -0.04 0.04 l-0.08 -0.08 l-0.08 -0.04 l-0.04 0.08 c0 0.04 -0.04 0.16 -0.08 0.2 c-0.24 0.4 -0.48 1 -0.48 1.16 l0 0.08 l0.04 -0.04 c0.04 -0.08 0.08 -0.16 0.08 -0.24 s0.04 -0.12 0.08 -0.12 c0.08 0 0.08 -0.04 0.08 -0.08 l-0.04 -0.04 l0.04 0 c0.04 0 0.08 -0.08 0.08 -0.12 c0 -0.08 0.04 -0.12 0.04 -0.12 c0.04 0 0.08 0.04 0.08 0.08 s-0.04 0.08 -0.08 0.12 l-0.04 0.16 c0 0.04 -0.04 0.12 -0.08 0.12 l-0.04 0.08 l-0.04 0.16 c-0.08 0.08 -0.16 0.4 -0.36 0.96 c-0.04 0.16 -0.08 0.44 -0.08 0.64 s0 0.4 -0.08 0.48 l-0.08 0.08 l0 -0.04 l-0.04 -0.08 l-0.04 0.08 l-0.12 0.04 l-0.04 0 l0 -0.08 c0 -0.04 0 -0.04 -0.04 -0.04 s-0.08 0 -0.08 0.04 l0 0.04 c0 0.08 -0.08 0.12 -0.16 0.12 l-0.16 0 l0.04 0.04 c0.04 0.04 0.08 0.08 0.08 0.12 l-0.04 0.12 c-0.04 0 -0.12 0 -0.16 -0.04 l-0.16 -0.04 c-0.16 -0.04 -0.2 -0.12 -0.24 -0.32 l0 -0.12 l-0.04 0.04 c-0.04 0.04 -0.08 0.04 -0.12 0.04 c-0.16 0 -0.4 -0.12 -0.4 -0.28 l-0.04 -0.04 l-0.16 0.04 c-0.16 0 -0.32 -0.16 -0.4 -0.36 c0 -0.08 -0.08 -0.16 -0.12 -0.2 c-0.08 -0.04 -0.12 -0.12 -0.12 -0.2 c0 -0.16 -0.08 -0.28 -0.4 -0.6 c-0.08 -0.04 -0.08 -0.12 -0.08 -0.2 c0.04 -0.08 0.08 -0.56 0.08 -1.04 c0.04 -0.52 0.04 -1.04 0.04 -1.16 c0.04 -0.12 0.04 -0.6 0.08 -1.04 c0 -0.72 0.04 -0.92 0.12 -0.92 l0.04 0 c0.04 0 0.08 -0.08 0.12 -0.32 l0 -0.12 c0 -0.08 0 -0.16 -0.04 -0.16 l-0.08 0.16 l-0.04 0.2 c-0.04 -0.16 -0.08 -0.16 -0.08 -0.52 c0 -0.4 0.08 -0.92 0.12 -0.96 l0.04 -0.08 l-0.04 0 l-0.04 -0.04 c0 -0.04 0 -0.24 -0.04 -0.44 l-0.04 -0.32 l-0.24 0.48 l0.04 0.08 c0 0.04 0 0.04 -0.04 0.04 s-0.2 0.16 -0.32 0.4 c-0.2 0.4 -0.28 0.56 -0.36 0.56 l-0.08 -0.04 c-0.08 0 -0.24 0.16 -0.28 0.28 l0.04 0.32 c0 0.2 -0.12 0.56 -0.28 0.68 l-0.04 0 l0.04 -0.04 l0 -0.08 l-0.08 0.08 c-0.16 0.12 -0.28 0.28 -0.28 0.36 l0.04 0 c0.04 0 0.08 -0.04 0.12 -0.08 l0.08 -0.08 l0 0.08 c0 0.12 -0.12 0.4 -0.2 0.4 c-0.04 0 -0.04 0.08 -0.08 0.16 l-0.04 0.24 c-0.04 0 -0.08 0 -0.08 0.04 l-0.36 0.88 l-0.28 0.6 c-0.12 0.28 -0.2 0.4 -0.24 0.4 l-0.04 -0.24 l-0.2 0.32 c-0.04 0 -0.08 0.08 -0.08 0.2 c-0.04 0.12 -0.08 0.24 -0.12 0.24 l-0.04 0.16 l0.16 -0.08 l0.16 -0.16 l0.04 0.04 l-0.28 0.72 c-0.2 0.44 -0.32 1.16 -0.32 1.64 c0 0.28 0 0.52 -0.04 0.56 c-0.04 0.08 -0.28 0.2 -0.52 0.28 z M15.52 23.24 l0.2 -0.2 l-0.04 -0.08 l-0.08 0 c-0.04 0 -0.08 0.08 -0.12 0.16 l0 0.04 c0 0.04 0 0.08 0.04 0.08 z M7.64 23.52 l0.24 -0.08 c0.04 -0.04 0.08 -0.04 0.08 -0.08 l-0.04 0 l-0.2 0.08 z M7.56 24.240000000000002 l0.04 -0.04 l0 -0.12 c-0.04 0 -0.08 0 -0.08 0.08 c0 0.04 0 0.08 0.04 0.08 z M14.4 24.6 l0.08 -0.12 l-0.04 0 l-0.08 0.04 c0 0.04 0 0.08 0.04 0.08 z M6.76 24.880000000000003 c-0.04 0 -0.04 -0.04 -0.04 -0.12 c0.04 -0.2 0.04 -0.2 0.2 -0.2 c0.08 0 0.2 0 0.2 0.04 s-0.28 0.28 -0.36 0.28 z M16.2 24.96 l0.08 -0.08 c0.04 -0.04 0.04 -0.08 0.04 -0.12 l0 -0.04 c-0.04 0 -0.04 0.04 -0.04 0.04 l-0.08 0.16 l0 0.04 z M6.48 25.6 l-0.16 -0.08 l0.08 -0.16 l0.28 -0.4 l0.04 0 l0.04 0.08 c0 0.12 -0.04 0.28 -0.12 0.4 s-0.12 0.16 -0.16 0.16 z M16.32 25.240000000000002 l0.08 -0.04 l-0.04 -0.08 l-0.08 0.08 c0 0.04 0 0.04 0.04 0.04 z M16.76 25.28 c0.04 0 0.04 0 0.04 -0.08 c0 -0.04 -0.04 -0.04 -0.04 -0.04 l-0.04 0.08 z M16.84 25.6 c0.04 0 0.08 -0.04 0.12 -0.08 s0.08 -0.16 0.08 -0.24 c0 -0.04 0 -0.08 -0.04 -0.08 c-0.08 0 -0.12 0.04 -0.12 0.08 l0.08 0.16 l-0.08 0.12 c-0.04 0 -0.04 0 -0.04 0.04 z M15.52 25.4 l0.04 -0.08 l-0.04 -0.08 l0 0.16 z M16.32 25.8 c0.12 0 0.28 -0.08 0.36 -0.2 l0.04 -0.12 c0 -0.04 0 -0.04 -0.08 -0.04 c-0.04 0 -0.08 0.04 -0.08 0.12 c-0.04 0.08 -0.12 0.16 -0.2 0.16 l-0.28 -0.12 l0 0.08 c0.04 0.08 0.12 0.12 0.24 0.12 z M6.16 26.2 c-0.04 0 -0.08 -0.04 -0.08 -0.08 l0 -0.08 c0 -0.08 0 -0.12 0.04 -0.12 l0.04 0.04 l0.08 0 l-0.08 -0.04 l-0.04 -0.12 l0.04 -0.08 c0.04 -0.04 0.08 -0.08 0.12 -0.08 s0.04 0.08 0.04 0.2 l0 0.16 c-0.04 0.12 -0.08 0.2 -0.16 0.2 z M15.44 25.759999999999998 c0 -0.04 -0.08 -0.08 -0.12 -0.08 l-0.04 0.04 c0 0.04 0.04 0.04 0.08 0.04 l0.08 0 z M16.12 26.28 l0.04 -0.04 l-0.04 -0.04 c0 -0.08 0 -0.12 0.04 -0.16 l0.04 -0.04 l-0.04 -0.04 c-0.04 0 -0.08 0.04 -0.12 0.08 c0 0.04 0.04 0.24 0.08 0.24 z M15.8 26.64 c0.04 0 0.08 -0.04 0.08 -0.08 l0 -0.04 l-0.04 0 c-0.04 0 -0.04 0 -0.04 0.04 l0 0.08 z M5.88 26.72 l0 -0.12 l0.04 0.08 z M13.2 26.72 l0.08 -0.12 l-0.04 0 c-0.04 0 -0.08 0.04 -0.08 0.08 s0 0.04 0.04 0.04 z M16.16 26.72 l0.08 -0.04 c0 -0.04 0 -0.04 -0.04 -0.04 s-0.04 0 -0.04 0.04 l0 0.04 z M16.52 27 l-0.04 0 l0.04 -0.16 c0.08 -0.12 0.16 -0.2 0.2 -0.2 l0 0.04 c0 0.12 -0.08 0.28 -0.2 0.32 z M15.2 27.52 l0.2 -0.12 l0.08 -0.12 l-0.04 -0.04 c-0.04 -0.04 -0.04 -0.12 -0.04 -0.16 c0 -0.08 0 -0.16 0.04 -0.16 l0.08 -0.12 l0 -0.12 c-0.04 0 -0.12 0.04 -0.16 0.2 c-0.08 0.08 -0.16 0.16 -0.2 0.16 l-0.04 0 l-0.08 0.28 c-0.08 0 -0.08 0.04 -0.08 0.08 l0.08 0.04 l0.16 -0.04 l0.04 0.04 z M15.72 26.880000000000003 c0.04 0 0.08 -0.08 0.08 -0.12 s0 -0.08 -0.04 -0.08 l-0.12 0.2 l0.08 0 z M12.2 27.119999999999997 l-0.04 -0.08 c0 -0.04 -0.04 -0.04 -0.04 -0.04 c0 0.08 0.04 0.12 0.04 0.12 l0.04 0 z M14.92 27.119999999999997 l0.04 -0.08 l0 -0.04 l-0.04 0 c-0.04 0.04 -0.08 0.08 -0.08 0.12 l0.08 0 z M12.16 27.439999999999998 l0.08 -0.12 l-0.08 -0.04 c-0.04 0 -0.04 0.04 -0.04 0.08 s0 0.08 0.04 0.08 z M19.88 27.52 l0.08 -0.12 l-0.04 -0.08 c-0.04 0 -0.04 -0.04 -0.04 -0.04 c-0.04 0 -0.04 0.04 -0.04 0.12 s0 0.12 0.04 0.12 z M9 27.439999999999998 l0 -0.04 l-0.04 -0.08 c-0.04 0 -0.04 0.04 -0.04 0.08 z M14.12 27.560000000000002 c0.04 0 0.08 -0.04 0.08 -0.08 s-0.04 -0.08 -0.08 -0.08 s-0.04 0.04 -0.04 0.08 s0 0.08 0.04 0.08 z M13.84 27.64 l0.08 -0.08 c0 -0.04 0 -0.04 -0.04 -0.04 s-0.04 0 -0.04 0.04 l0 0.08 z M15.12 27.880000000000003 c0.04 0 0.08 -0.04 0.08 -0.08 l-0.04 -0.12 l-0.08 -0.04 l-0.04 0.08 l0 0.08 l0.04 0.08 l0.04 0 z M15.36 27.8 c0.04 0 0.08 -0.04 0.08 -0.08 s0 -0.04 -0.04 -0.04 l-0.04 0 l-0.04 0.08 c0 0.04 0.04 0.04 0.04 0.04 z M8.6 28.08 c0.04 0 0.08 -0.04 0.08 -0.08 s-0.04 -0.12 -0.08 -0.12 s-0.08 0.04 -0.08 0.12 l0.04 0.08 l0.04 0 z M15.8 28.119999999999997 c-0.04 0 -0.08 -0.04 -0.08 -0.08 s0.04 -0.08 0.08 -0.08 l0.04 0 l0 0.04 c0 0.08 0 0.12 -0.04 0.12 z M19.92 28.36 l0.04 -0.08 c0.04 -0.08 0.04 -0.16 0.04 -0.2 s0 -0.08 -0.04 -0.08 s-0.04 0.04 -0.04 0.12 l0 0.24 z M9.56 28.72 c0.04 0 0.08 -0.24 0.08 -0.48 l0 -0.04 l-0.04 0.16 z M13.92 28.32 l0.12 -0.12 l-0.16 0.08 c0 0.04 0 0.04 0.04 0.04 z M12.88 28.36 c0.04 0 0.04 -0.04 0.04 -0.08 l0 -0.04 l-0.08 0.04 c0 0.04 0 0.08 0.04 0.08 z M13.56 28.36 l0.08 -0.04 l-0.12 -0.08 l-0.04 0.04 c0 0.04 0.04 0.08 0.08 0.08 z M14.24 28.6 c0.04 0 0.08 -0.08 0.08 -0.16 l0.04 -0.12 c-0.04 0 -0.08 0.04 -0.12 0.12 l-0.04 0.12 z M14.52 28.48 l0.04 -0.08 l-0.08 -0.04 c-0.04 0 -0.04 0 -0.04 0.04 z M12.72 28.6 l0.04 -0.08 l-0.04 -0.08 l0 0.16 z M15.12 29 c0 -0.12 0.2 -0.48 0.28 -0.48 l0.08 0.04 l-0.04 0.08 c-0.08 0.12 -0.28 0.36 -0.32 0.36 z M13.56 28.759999999999998 l0.04 -0.08 l-0.04 -0.08 l-0.04 0.08 z M5.04 28.759999999999998 l0.04 -0.04 l-0.04 -0.08 c-0.04 0 -0.08 0.04 -0.08 0.08 z M8.32 28.92 l-0.04 -0.08 c0 -0.04 0.04 -0.08 0.12 -0.08 l0.08 0 z M13.84 29.32 c0.04 0 0.04 -0.08 0.04 -0.12 s0.04 -0.04 0.04 -0.04 l0.04 0 c0.04 0 0.04 0 0.04 -0.08 l0 -0.04 l-0.08 0 l-0.12 0.24 c0 0.04 0 0.04 0.04 0.04 z M14.6 29.16 l-0.08 -0.08 l-0.08 0 l0 0.04 l0.12 0.04 l0.04 0 z M13.24 29.28 c0.04 0 0.04 0 0.04 -0.04 l-0.04 -0.08 l-0.08 0.08 z M14.28 29.48 c0.04 0 0.04 -0.04 0.04 -0.12 c0 -0.04 0 -0.04 -0.04 -0.04 l-0.12 0 l-0.08 -0.04 l-0.08 0.04 l-0.04 0.04 l0.04 -0.04 c0.08 0 0.16 0.04 0.2 0.08 z M14.2 30.240000000000002 c0.04 0 0.12 -0.04 0.2 -0.12 l0.08 -0.16 l0.16 -0.28 c0.08 -0.12 0.16 -0.24 0.16 -0.32 c0 -0.04 -0.04 -0.08 -0.08 -0.08 l-0.12 0.16 z M13.24 29.52 l0.04 -0.04 l-0.04 -0.04 c0 -0.04 -0.04 -0.08 -0.08 -0.08 c0 0 -0.04 0 -0.04 0.04 c0 0.08 0.08 0.12 0.12 0.12 z M7.88 29.6 l0.08 -0.04 l-0.12 -0.08 l0 0.04 c0 0.04 0 0.08 0.04 0.08 z M14.12 29.8 c0 0 0 -0.08 -0.04 -0.12 l-0.04 0 l0.04 0.12 l0.04 0 z M13.48 29.84 l0.04 -0.04 c0.08 -0.04 0.08 -0.08 0.08 -0.12 c-0.04 0 -0.08 0 -0.08 0.08 z M9.48 31.04 l0 -0.04 c0.04 -0.04 0.08 -0.32 0.08 -0.64 c0 -0.28 0 -0.56 -0.04 -0.56 s-0.04 0.04 -0.04 0.08 c0 0.08 0 0.4 -0.04 0.68 c0 0.32 0 0.48 0.04 0.48 z M13.2 30.240000000000002 c0.04 0 0.12 -0.04 0.16 -0.12 l0.04 -0.2 l-0.04 0 s0 0.12 -0.12 0.2 z M12.76 30.08 c0.04 0 0.04 -0.04 0.04 -0.08 l0 -0.04 l-0.08 0.04 c0 0.04 0 0.08 0.04 0.08 z M12.96 30.28 l0.04 -0.04 l-0.04 -0.08 l0 0.12 z M12.48 30.36 l0.04 -0.04 l0.04 -0.08 l0 -0.04 l-0.08 0.08 l0 0.08 z M14.08 30.68 c0.04 0 0.12 -0.08 0.12 -0.12 c0 -0.08 0 -0.16 -0.04 -0.24 c0 -0.04 -0.04 -0.04 -0.04 -0.04 c-0.04 0 -0.04 0.04 -0.08 0.16 l-0.08 0.2 c0 0.04 0.04 0.04 0.12 0.04 z M13.36 30.560000000000002 l0.04 -0.08 c0 -0.04 0 -0.04 -0.04 -0.04 l-0.08 0.04 z M13.64 30.6 c0.04 0 0.08 -0.04 0.12 -0.12 c0 -0.04 -0.04 -0.04 -0.08 -0.04 s-0.08 0.04 -0.08 0.08 z M7.32 30.8 c0.04 0 0.08 -0.04 0.08 -0.08 s-0.08 -0.16 -0.12 -0.16 l0 0.04 l-0.04 0.16 c0 0.04 0 0.04 0.04 0.04 l0.04 0 z M13.88 30.92 c0.04 0 0.08 -0.04 0.08 -0.12 c0 -0.04 0 -0.04 -0.04 -0.04 l-0.04 0 c-0.04 0 -0.04 0.04 -0.04 0.08 s0 0.08 0.04 0.08 z M12.92 30.96 l0 -0.08 c0 -0.08 0 -0.08 -0.04 -0.08 c-0.04 0.04 -0.04 0.08 -0.04 0.12 z M13.32 30.96 c0.04 0 0.04 -0.04 0.04 -0.08 c0 -0.08 -0.04 -0.08 -0.08 -0.08 l0 0.08 z M13.04 31.08 l0.08 -0.08 l-0.04 -0.04 c-0.04 0 -0.08 0.04 -0.08 0.08 c0 0 0 0.04 0.04 0.04 z M13.64 31.52 c0.04 0 0.08 -0.04 0.12 -0.12 s0.08 -0.2 0.08 -0.28 c0 -0.04 -0.04 -0.08 -0.08 -0.08 s-0.04 0 -0.08 0.16 l-0.04 0.12 c-0.04 0.04 -0.04 0.08 -0.04 0.16 z M12.52 31.72 c0.04 0 0.08 -0.04 0.08 -0.08 s0 -0.08 0.08 -0.12 c0.04 -0.04 0.08 -0.16 0.08 -0.24 l0.04 -0.2 c-0.24 0.24 -0.32 0.4 -0.32 0.56 c0 0.04 0 0.08 0.04 0.08 z M13.28 31.2 l0 -0.04 c0 -0.04 0 -0.08 -0.04 -0.08 s-0.04 0.04 -0.04 0.08 z M9.48 31.48 c0.04 -0.04 0.04 -0.08 0.04 -0.16 l-0.08 -0.12 c-0.04 0 -0.04 0.04 -0.04 0.12 l0.04 0.12 c0 0.04 0 0.04 0.04 0.04 z M6.68 31.92 c0.04 0 0.12 -0.08 0.2 -0.2 l0.12 -0.28 c0 -0.04 -0.04 -0.08 -0.08 -0.08 c0 0 -0.08 0.08 -0.08 0.2 z M6.16 31.92 c0.04 0 0.04 -0.04 0.04 -0.08 c0 0 0 -0.04 -0.04 -0.04 l-0.08 0.04 z M12.4 31.96 l0.08 -0.12 l-0.04 -0.04 l-0.04 0.04 c-0.04 0 -0.04 0.04 -0.04 0.08 s0 0.04 0.04 0.04 z M12.72 32.08 l0.04 -0.16 c-0.04 0 -0.04 0 -0.04 0.04 c-0.04 0 -0.08 0.04 -0.08 0.08 s0.04 0.04 0.08 0.04 z M6.52 32.44 c0.08 -0.2 0.16 -0.32 0.16 -0.4 l0 -0.04 c-0.04 0 -0.08 0.12 -0.12 0.24 z M12.48 32.12 l0.04 -0.04 l-0.04 -0.04 l0.04 0 l-0.04 -0.04 l0 0.12 z M12.36 32.56 c0.04 0 0.08 -0.04 0.12 -0.12 l0.04 -0.12 l-0.08 0.08 c-0.04 0.04 -0.08 0.08 -0.08 0.12 l0 0.04 z M13.12 32.64 l-0.04 0 l0 -0.04 c0 -0.04 0.08 -0.2 0.16 -0.2 c0.04 0 0.04 0 0.04 0.04 s0 0.08 -0.08 0.16 z M20.24 32.88 l-0.04 -0.08 c0 -0.04 0 -0.04 0.04 -0.04 s0.08 0 0.08 0.04 z M5.76 33.12 l0.04 -0.04 l-0.08 -0.08 l-0.04 0.04 c0 0.04 0.04 0.08 0.08 0.08 z M7.16 33.32 l-0.04 0 l0 -0.12 l0.04 0 l0 0.12 z M19.48 33.4 l0.08 -0.04 l-0.12 -0.04 c0 0.04 0 0.08 0.04 0.08 z M19.84 33.480000000000004 l0.04 -0.08 c0 -0.04 0 -0.04 -0.04 -0.04 l-0.08 0.04 z M12.52 33.96 l0.08 -0.12 l-0.12 -0.16 l0 0.28 l0.04 0 z M14.745999999999999 39.8 c-0.04 0 -0.04 0 -0.04 -0.04 l0 -0.12 l-0.12 0 l0.04 -0.08 c0 -0.04 0.04 -0.08 0.08 -0.08 s0.04 0 0.04 -0.04 s-0.04 -0.04 -0.08 -0.04 s-0.12 0 -0.12 0.08 l-0.08 0.04 l-0.04 -0.08 l0.08 -0.08 l-0.04 0 c-0.08 0 -0.2 -0.04 -0.2 -0.08 s0.04 -0.04 0.12 -0.04 l0.08 0 l-0.12 -0.08 l0 -0.04 c0 -0.04 0 -0.08 -0.04 -0.08 l-0.24 -0.12 l-0.04 0.08 c-0.04 0 -0.08 -0.04 -0.08 -0.08 s0.04 -0.08 0.08 -0.08 l0.04 -0.04 c0 -0.04 -0.04 -0.04 -0.12 -0.04 l-0.08 0.04 l0 -0.28 l-0.2 0.04 c-0.04 0 -0.04 0 -0.04 -0.12 c0 -0.04 0 -0.12 0.04 -0.12 l0.04 0 l-0.04 -0.04 c0 -0.04 -0.08 -0.04 -0.12 -0.04 c-0.12 0 -0.32 -0.28 -0.32 -0.36 l0 -0.04 c0.04 0 0.04 -0.08 0.04 -0.12 c0 -0.16 0.36 -0.44 0.68 -0.64 l0.32 -0.16 l0.12 -0.08 l0.08 0.08 l0.04 0 l0.04 -0.04 l-0.04 0 l-0.04 -0.08 l0.12 0 c0.04 0 0.04 0.04 0.04 0.08 s0 0.08 0.04 0.08 l0.04 -0.04 l-0.08 -0.12 l0 -0.08 c0 -0.04 0.24 -0.16 0.32 -0.16 s0.12 -0.04 0.16 -0.08 c0.04 -0.08 0.12 -0.12 0.2 -0.16 c0.04 0 0.16 -0.08 0.2 -0.16 c0.08 -0.08 0.16 -0.16 0.2 -0.16 l0.44 -0.16 c0.24 -0.08 0.32 -0.16 0.32 -0.16 l0 -0.04 c-0.04 -0.04 -0.08 -0.08 -0.08 -0.12 l0.04 0.04 l0.28 0.08 c0.2 0 0.4 -0.16 0.4 -0.24 l0 -0.08 c0 -0.04 0.08 -0.08 0.28 -0.2 l0.4 -0.24 l0.24 -0.12 c0 -0.04 0.08 -0.08 0.2 -0.12 l0.16 -0.08 c0 -0.04 0.04 -0.04 0.08 -0.04 s0.08 0 0.12 -0.04 s0.12 -0.08 0.2 -0.08 l0.16 -0.08 c0.04 -0.04 0.16 -0.04 0.28 -0.04 c0.2 0 0.24 0 0.24 -0.08 s-0.04 -0.12 -0.08 -0.12 l0.04 -0.08 c0.04 -0.04 0.12 -0.04 0.12 -0.04 l0.24 -0.04 l0.16 -0.04 l0 0.04 l0.04 0 c0.04 0 0.08 0 0.08 -0.04 s0.08 -0.08 0.2 -0.12 c0.08 -0.04 0.2 -0.12 0.28 -0.12 c0.04 -0.04 0.12 -0.04 0.16 -0.04 s0.08 -0.04 0.08 -0.08 s0.04 -0.04 0.08 -0.04 l0.04 0 c0.08 0 0.12 0 0.12 -0.04 s0 -0.04 0.04 -0.04 s0.04 0 0.04 0.04 l-0.04 0.04 l0.04 0.04 l0.08 -0.04 c0.04 0 0.08 -0.04 0.08 -0.08 l0 -0.04 l0.12 0 c0.04 0 0.12 0 0.16 -0.04 s0.08 -0.08 0.12 -0.08 s0.08 -0.04 0.08 -0.08 l-0.04 -0.08 l-0.2 0.04 l0.04 -0.08 c0.04 -0.08 0.12 -0.12 0.24 -0.12 l0.2 0.08 l0.16 -0.08 c0.12 -0.08 0.2 -0.16 0.2 -0.24 l0.04 -0.08 l-0.08 0.04 l-0.08 0.16 l-0.08 0.04 c-0.04 0 -0.08 -0.04 -0.08 -0.08 l-0.24 -0.12 l-0.12 -0.04 l-0.08 0 c-0.08 0 -0.16 0 -0.16 -0.04 l-0.12 0 c-0.12 0 -0.12 -0.04 -0.16 -0.12 l-0.04 -0.16 c-0.04 0 -0.04 -0.04 -0.04 -0.12 c0 -0.04 0 -0.08 -0.04 -0.08 l-0.04 0 l0.04 0.04 c0 0.04 0 0.08 -0.08 0.08 c-0.04 0 -0.04 0.08 -0.04 0.12 c0.04 0.04 0.04 0.08 0.08 0.08 l0.04 0 l0 0.12 l-0.08 -0.04 c-0.08 -0.04 -0.16 -0.04 -0.2 -0.04 s-0.08 0 -0.08 -0.04 s0 -0.08 -0.04 -0.08 s-0.08 0 -0.08 -0.04 l-0.16 0 l-0.32 -0.16 l-0.12 0.08 l-0.08 0.04 l0 -0.08 c0 -0.08 -0.04 -0.16 -0.08 -0.2 l-0.08 -0.04 l-0.04 0.04 l0.08 0.2 c-0.08 0 -0.6 -0.36 -0.8 -0.56 c-0.6 -0.64 -0.68 -0.76 -0.68 -0.8 l0 -0.04 c0 -0.04 -0.04 -0.08 -0.08 -0.12 c-0.08 -0.04 -0.12 -0.12 -0.16 -0.28 c0 -0.12 -0.08 -0.2 -0.08 -0.24 c-0.04 0 -0.12 -0.08 -0.12 -0.2 l-0.2 -0.44 c-0.08 -0.16 -0.2 -0.48 -0.24 -0.68 s-0.12 -0.4 -0.16 -0.52 l-0.04 -0.24 c0 -0.36 0.12 -0.88 0.2 -0.96 c0.04 -0.04 0.08 -0.08 0.08 -0.12 s0 -0.08 0.04 -0.08 s0.36 -0.32 0.36 -0.36 l-0.08 0 l-0.08 -0.04 l-0.04 -0.08 l0.08 -0.08 c0.04 -0.08 0.12 -0.12 0.16 -0.12 c0.12 0 0.36 -0.24 0.36 -0.28 l0 -0.04 c0 -0.04 0 -0.08 0.04 -0.12 l0.04 -0.12 l-0.04 0.04 c-0.04 0.04 -0.08 0.04 -0.12 0.04 l0 -0.04 l0.16 -0.32 c0.16 -0.2 0.28 -0.36 0.32 -0.36 l0.04 0.04 c0 0.04 -0.04 0.12 -0.16 0.2 l-0.2 0.32 l0.04 0.04 c0.04 0 0.32 -0.24 0.32 -0.28 l0.36 -0.44 c0.24 -0.24 0.4 -0.44 0.4 -0.48 s0.04 -0.04 0.08 -0.04 s0.36 -0.28 0.36 -0.36 c0 -0.04 0.2 -0.2 0.4 -0.4 c0.24 -0.16 0.4 -0.36 0.4 -0.36 l-0.04 -0.04 l0.08 0 c0.04 0 0.12 -0.04 0.2 -0.12 c0.12 -0.04 0.24 -0.12 0.24 -0.16 c0.04 -0.04 0.16 -0.08 0.24 -0.16 s0.16 -0.12 0.2 -0.12 s0.08 -0.04 0.12 -0.08 l0.16 -0.08 l0.16 -0.04 c0 -0.04 0.08 -0.08 0.12 -0.08 c0.08 0 0.16 0 0.24 -0.04 c0.08 -0.08 0.36 -0.12 0.6 -0.2 c0.2 -0.04 0.32 -0.04 0.32 -0.08 l-0.04 0 c-0.08 0 -0.12 -0.04 -0.12 -0.04 l0 -0.04 l0.12 0 c0.04 0 0.08 0 0.08 -0.04 l0.04 -0.04 c0 0.04 0.04 0.04 0.08 0.04 c0.04 0.08 0.16 0.08 0.2 0.08 l0.04 0 c0.04 0 0.08 0.04 0.12 0.08 l0.2 0.16 c0.04 0.04 0.16 0.12 0.2 0.24 l0.16 0.24 c0.04 0.04 0.12 0.16 0.16 0.32 c0.04 0.12 0.2 0.36 0.28 0.48 l0.16 0.32 l-0.04 0.12 l0.12 0.12 l-0.08 0.16 l-0.04 0.16 l0.08 -0.04 l-0.04 0.08 c0 0.04 0 0.08 0.04 0.12 l0.04 0.04 l-0.08 0 c-0.04 0 -0.04 0 -0.04 0.04 l0.04 0.24 l-0.12 0 c0.04 0 0.04 0.04 0.04 0.08 c0 0 0 0.04 -0.08 0.04 c-0.04 0 -0.04 -0.04 -0.04 -0.08 l-0.04 -0.08 l-0.04 0.04 c0 0.04 0 0.04 -0.04 0.04 l-0.04 0 l-0.08 0.04 l0 0.04 l-0.08 -0.08 c-0.04 -0.04 -0.12 -0.04 -0.12 -0.04 l0.04 -0.16 c0 -0.04 -0.04 -0.04 -0.12 -0.08 c-0.08 0 -0.16 0.04 -0.2 0.08 l-0.12 0.04 l-0.16 0 l0.04 0.08 c0 0.04 -0.04 0.04 -0.12 0.04 l-0.04 -0.04 l0 -0.08 l-0.08 0.04 l-0.04 0.08 l0.08 0.16 c0 0.04 -0.04 0.08 -0.16 0.12 s-0.24 0.04 -0.28 0.04 c-0.08 0 -0.12 0.04 -0.16 0.12 l-0.08 0.04 c0 -0.04 -0.04 -0.04 -0.04 -0.04 l-0.04 0.08 l0 0.04 c0 0.04 -0.12 0.08 -0.2 0.08 l-0.16 0 l0.04 0.04 l0.04 0.08 c0 0.04 -0.04 0.08 -0.12 0.08 l-0.04 -0.04 l0 -0.12 l-0.04 0.04 c-0.04 0 -0.08 0.04 -0.08 0.08 l-0.08 0.04 c-0.04 0 -0.08 0.04 -0.08 0.08 s0 0.08 0.04 0.08 s0.04 0 0.04 0.04 l-0.08 0.08 l-0.04 -0.08 l0 -0.04 l-0.04 0 c-0.04 0 -0.16 0.08 -0.24 0.16 l-0.2 0.16 l-0.08 -0.04 c-0.08 0 -0.12 0.04 -0.16 0.08 c-0.08 0.04 -0.16 0.12 -0.16 0.16 l-0.04 0.04 l0 -0.04 c0 -0.04 0 -0.12 0.04 -0.2 l0.04 -0.08 l-0.08 0.04 c-0.08 0 -0.08 0.04 -0.08 0.28 l0 0.2 l-0.08 -0.08 l-0.12 0.08 l-0.04 0.08 l0.08 0 c0.04 0 0.04 0 0.04 0.04 l0 0.04 c-0.04 0.12 -0.16 0.2 -0.4 0.2 c-0.04 0 -0.08 0.08 -0.08 0.12 c0 0.08 -0.04 0.12 -0.08 0.12 s-0.04 0.04 -0.04 0.08 c0 0.08 -0.04 0.12 -0.12 0.12 s-0.16 0 -0.16 0.04 s0 0.12 -0.08 0.16 c-0.04 0.08 -0.04 0.08 -0.08 0.08 l-0.08 -0.12 l-0.08 0.12 c0 0.04 0.04 0.08 0.08 0.12 c0.12 0.08 0.12 0.12 0.12 0.24 c-0.04 0.08 -0.04 0.12 -0.08 0.12 l-0.04 0 c-0.12 0 -0.32 0.16 -0.32 0.28 l0 0.08 l-0.04 0 c-0.04 0 -0.08 0.04 -0.08 0.08 c0 0 0 0.04 0.04 0.04 c0 0.04 -0.04 0.12 -0.12 0.2 c-0.16 0.16 -0.24 0.28 -0.24 0.36 l0.04 0.12 s0.08 0.08 0.2 0.12 l0.24 0.16 c0.04 0.04 0.08 0.08 0.12 0.08 l0.2 0.08 l0.2 0.04 l0.16 0.04 c0.08 0.08 0.16 0.12 0.24 0.12 c0.12 0 0.16 0 0.16 0.04 s0.56 0.16 0.8 0.16 l0.12 0 l0.08 0.04 c0.04 0.04 0.04 0.08 0.08 0.08 l0.04 0 c0.04 0 0.08 0 0.12 0.04 l0.04 0.04 l0.08 -0.08 l0.08 -0.04 c0 0.08 0.04 0.08 0.08 0.08 c0.08 0 0.12 0 0.2 -0.04 c0.04 -0.04 0.16 -0.04 0.16 -0.04 c0.04 0.04 0.12 0.04 0.2 0.04 l0.16 0.04 l0.04 0.04 l0 -0.08 l0.08 0.04 c0.04 0.04 0.04 0.08 0.04 0.12 c0 0 0 0.04 0.04 0.04 s0.04 -0.04 0.04 -0.08 s0.04 -0.08 0.08 -0.08 l0.04 0.04 l0.24 0.04 l0.24 0 c0 0.04 0.04 0.04 0.08 0.04 c0.2 0.04 0.64 0.2 0.68 0.24 l0.24 0.16 c0.28 0.16 0.92 0.68 0.92 0.8 c0 0.04 0.36 0.6 0.44 0.72 c0.04 0.04 0.08 0.12 0.08 0.24 l0.08 0.2 c0.08 0.08 0.12 0.48 0.12 0.72 l0 0.16 c0 0.16 -0.04 0.24 -0.12 0.28 c-0.04 0.04 -0.08 0.08 -0.08 0.12 l0 0.04 l-0.08 0.08 c-0.08 0.04 -0.12 0.08 -0.12 0.12 l0 0.04 c0 0.04 -0.04 0.04 -0.08 0.04 s-0.08 0 -0.12 -0.04 l-0.24 -0.12 l0.04 0.12 c0 0.08 -0.04 0.12 -0.12 0.2 c-0.12 0.12 -0.2 0.16 -0.28 0.16 c-0.04 0 -0.08 0 -0.08 -0.08 s0.04 -0.08 0.08 -0.08 l0.04 0 c0.04 0 0.08 0 0.08 -0.04 l0.16 -0.08 c0.04 0 0.04 0 0.04 -0.04 l-0.08 -0.04 l-0.12 0.04 c0 0.04 -0.12 0.08 -0.24 0.16 c-0.12 0.04 -0.28 0.16 -0.32 0.2 s-0.08 0.08 -0.12 0.08 s-0.08 0.04 -0.08 0.08 l-0.04 0 c-0.08 0 -0.08 0 -0.08 0.04 c0 0.08 -0.4 0.32 -0.6 0.32 c-0.08 0 -0.12 0.04 -0.12 0.04 l0 0.04 c0 0.04 -0.04 0.08 -0.12 0.08 c-0.04 0 -0.08 0.04 -0.08 0.08 s-0.08 0.08 -0.12 0.12 c-0.08 0 -0.12 0.04 -0.12 0.08 l0.04 0.04 l-0.2 0.04 l-0.16 -0.04 l-0.04 -0.04 l0 0.04 c0 0.08 -0.08 0.16 -0.12 0.16 l-0.08 -0.12 l0 0.08 c0 0.04 -0.04 0.08 -0.08 0.12 l-0.04 0 l0 -0.16 c-0.04 0 -0.04 0 -0.08 0.08 c-0.04 0.04 -0.08 0.08 -0.12 0.08 l-0.24 0.08 c-0.16 0.04 -0.24 0.08 -0.24 0.16 s-0.04 0.12 -0.08 0.12 l-0.08 0 c0 0.04 -0.04 0.04 -0.08 0.04 l-0.04 -0.08 l0 -0.04 l-0.04 0.04 l-0.2 0.04 l-0.28 0.12 l-0.08 -0.04 s0 -0.04 0.04 -0.04 l0.04 -0.08 l0 -0.04 l0.04 0 c0.12 0 0.4 -0.16 0.4 -0.24 l-0.04 0 l-0.48 0.2 c-0.04 0 -0.04 0 -0.04 0.04 s-0.04 0.04 -0.04 0.04 l-0.16 0.04 l-0.2 0.08 c-0.08 0 -0.32 0.12 -0.32 0.12 c0 0.04 -0.04 0.08 -0.12 0.08 c-0.04 0 -0.04 0 -0.04 0.04 l0 0.04 c0 0.04 0 0.08 -0.04 0.08 s-0.04 0 -0.04 -0.04 s0 -0.04 -0.04 -0.04 l-0.08 0 c-0.04 0 -0.08 0.04 -0.08 0.08 l-0.08 0.04 c-0.08 0 -0.16 0.08 -0.16 0.16 l0.04 0.08 c0 0.04 -0.16 0.12 -0.24 0.12 c-0.04 0 -0.08 0 -0.08 0.04 l-0.12 0.04 l-0.08 -0.04 c0 -0.04 -0.04 -0.04 -0.12 -0.04 l-0.08 0 l0.08 0.12 l-0.12 0 c-0.12 0 -0.28 0.04 -0.32 0.12 c0 0.04 -0.08 0.08 -0.12 0.08 c-0.16 0.04 -0.28 0.12 -0.28 0.16 s-0.08 0.08 -0.4 0.12 l-0.16 0.04 l-0.04 -0.04 l0.04 -0.04 l-0.04 -0.04 c-0.04 0 -0.04 0.04 -0.04 0.08 s0 0.08 0.04 0.08 s0.04 0.04 0.04 0.12 s0 0.08 -0.08 0.08 l-0.04 0 c-0.08 0 -0.16 0.04 -0.2 0.08 c-0.2 0.08 -0.2 0.12 -0.2 0.24 l0 0.08 c0 0.12 -0.04 0.16 -0.08 0.16 l-0.08 -0.04 l-0.04 -0.04 l0.04 0 c0.04 0 0.08 -0.04 0.08 -0.08 s0 -0.04 -0.04 -0.04 s-0.12 0.04 -0.2 0.12 c-0.08 0.04 -0.16 0.08 -0.24 0.08 c-0.04 0 -0.08 0.04 -0.12 0.08 c0 0.04 -0.12 0.12 -0.24 0.16 l-0.28 0.16 s0 0.04 0.04 0.04 l0.08 0.04 l0.12 -0.12 l0.04 0.08 l-0.04 0.08 l-0.04 0 s-0.08 0 -0.12 0.04 l-0.28 0.16 l-0.16 0.04 l0.04 -0.12 l-0.04 -0.04 l-0.04 0.04 l-0.16 0.08 l-0.04 0 l0 0.04 c0 0.04 0 0.08 -0.28 0.12 l-0.2 0.12 z M21.626 22.44 l-0.08 -0.04 c0 -0.08 0.04 -0.12 0.08 -0.12 l0.16 -0.04 c0 -0.04 0.04 -0.08 0.08 -0.08 l0.24 -0.08 c0.12 -0.08 0.36 -0.12 0.48 -0.12 c0.08 0 0.16 0 0.16 0.04 l0.04 0.04 l0 -0.04 c0 -0.04 0.04 -0.08 0.08 -0.08 s0.08 0.04 0.08 0.08 c0 0.08 -0.2 0.12 -0.48 0.12 c-0.12 0 -0.2 0.04 -0.2 0.08 l0 0.04 l-0.04 0 z M20.306 23.48 c-0.04 0 -0.08 -0.04 -0.08 -0.08 s0.08 -0.2 0.24 -0.28 c0.28 -0.24 0.44 -0.36 0.48 -0.36 s0.04 0 0.04 0.04 c0 0.08 -0.16 0.2 -0.24 0.2 s-0.12 0.04 -0.12 0.08 c0 0.08 -0.08 0.16 -0.16 0.16 l-0.04 0 l-0.16 0.04 l0.04 0.04 c0.04 0.04 0.04 0.08 0.04 0.12 z M20.105999999999998 23.6 l-0.04 -0.08 l0.04 -0.04 l0.04 0.04 c0 0.04 0 0.08 -0.04 0.08 z M19.945999999999998 23.76 l-0.04 -0.08 l0.08 -0.04 c0.04 0 0.04 0 0.04 0.04 s-0.04 0.08 -0.08 0.08 z M19.026 24.64 c0.08 -0.16 0.12 -0.2 0.2 -0.24 c0 0 0.04 0 0.04 0.04 z M24.746 24.759999999999998 c0.04 0 0.04 0 0.04 -0.04 l0 -0.04 l-0.04 -0.08 s-0.04 0 -0.04 0.04 l-0.04 0.04 l0.04 0.08 l0.04 0 z M18.866 25 l-0.04 -0.04 c-0.04 -0.04 -0.08 -0.04 -0.12 -0.04 l-0.04 0 l-0.04 -0.04 c0 -0.04 0.08 -0.12 0.16 -0.16 c0.04 -0.04 0.12 -0.04 0.2 -0.04 c0.04 0 0.04 0 0.04 0.04 l0 0.04 c0 0.04 -0.08 0.04 -0.08 0.04 l-0.04 0 c-0.04 0 -0.04 0.04 -0.04 0.08 l0 0.12 z M23.226 25.119999999999997 l0.04 -0.04 l0 -0.04 c0 -0.04 0.04 -0.08 0.12 -0.12 l0.12 -0.08 l-0.16 0 c-0.16 0.04 -0.24 0.04 -0.24 0.08 l0.12 0.12 l0 0.08 z M24.266 25 l0 -0.04 c0 -0.04 0 -0.04 0.04 -0.04 s0.04 0 0.04 0.04 z M24.026 25 l-0.08 0 l0.04 -0.04 l0.12 0 c0 0.04 -0.04 0.04 -0.08 0.04 z M23.426 25.119999999999997 l0 -0.04 l-0.08 -0.04 s0 0.04 0.04 0.04 z M24.945999999999998 25.2 l0.04 -0.08 l0 0.04 z M22.306 25.48 l0.08 -0.04 c0.04 0 0.08 -0.08 0.08 -0.08 c0 -0.04 0 -0.04 -0.08 -0.04 l-0.04 0 l0.04 -0.04 l-0.04 -0.04 c-0.04 0 -0.08 0.04 -0.08 0.12 l0 0.08 z M22.786 25.52 l0.04 -0.16 l-0.04 -0.12 c-0.04 0 -0.04 0.08 -0.04 0.12 z M22.866 25.8 c0 0 -0.04 0 -0.04 -0.08 l0.04 -0.08 l0.04 0 l0.04 0.08 z M21.586 26 c0.04 0 0.08 -0.04 0.12 -0.08 c0 -0.08 0.04 -0.12 0.16 -0.12 s0.16 -0.04 0.16 -0.04 c0 -0.04 -0.04 -0.04 -0.12 -0.04 c-0.12 0 -0.36 0.16 -0.36 0.24 c0 0.04 0 0.04 0.04 0.04 z M17.945999999999998 26.08 c0 -0.08 0.08 -0.12 0.2 -0.2 l0.08 0 c0 0.04 -0.04 0.04 -0.12 0.12 z M21.786 26 c0 0 0.04 0 0.04 -0.04 s0 -0.04 -0.04 -0.04 l-0.04 0.04 c0 0.04 0 0.04 0.04 0.04 z M22.066 26.119999999999997 l-0.04 -0.04 l0.04 -0.08 l0.04 0 c0.04 0 0.04 0 0.04 0.04 s-0.04 0.08 -0.08 0.08 z M17.906 26.36 l0.08 -0.04 c0 -0.04 0 -0.04 -0.04 -0.04 s-0.04 0 -0.04 0.04 l0 0.04 z M21.426 26.52 c-0.04 0 -0.04 -0.04 -0.04 -0.12 l0.04 -0.08 c0.04 0 0.04 0.04 0.04 0.08 z M21.026 26.48 l0.08 -0.04 l0.04 -0.08 l0 -0.04 c-0.04 0 -0.04 0.04 -0.08 0.12 z M20.706 26.72 l0.04 -0.04 c0 -0.04 0 -0.08 -0.04 -0.08 l-0.04 0.08 z M20.186 27.28 l0.04 -0.04 c0.08 0 0.2 -0.12 0.28 -0.2 s0.16 -0.16 0.16 -0.2 c-0.04 0 -0.08 0.04 -0.12 0.08 l-0.08 0.04 l-0.04 -0.04 c-0.04 0 -0.12 0.08 -0.2 0.2 z M20.066 27.560000000000002 c0.04 0 0.04 -0.04 0.08 -0.08 l0.04 -0.16 l-0.04 0 c-0.04 0 -0.08 0.08 -0.08 0.16 l0 0.08 z M19.786 27.96 l0 -0.08 l-0.04 -0.04 l0.08 0 l0.04 0.04 l-0.04 -0.04 c0 -0.04 0 -0.04 -0.04 -0.04 l-0.08 0.04 z M19.466 28.32 l0.08 -0.08 c0.08 -0.04 0.12 -0.12 0.12 -0.16 l-0.04 -0.04 l-0.04 0.08 l0 0.08 c-0.04 0 -0.08 0.04 -0.12 0.08 l0 0.04 z M19.346 28.64 l0.12 -0.12 l-0.04 -0.08 c-0.04 0 -0.08 0.04 -0.12 0.08 l-0.04 0.08 c0 0.04 0.04 0.04 0.08 0.04 z M19.186 28.560000000000002 l0.04 -0.04 c0 -0.04 0 -0.08 -0.04 -0.08 l-0.04 0.08 c0 0.04 0 0.04 0.04 0.04 z M19.306 29.28 c-0.04 0 -0.04 0 -0.04 -0.08 c0 -0.04 0.04 -0.04 0.08 -0.04 s0.04 0 0.04 0.04 c-0.04 0.08 -0.08 0.08 -0.08 0.08 z M20.986 30.04 c-0.04 0 -0.08 0 -0.08 -0.04 l0.08 -0.04 c0.04 0 0.08 0 0.08 0.04 z M21.146 30.119999999999997 l-0.04 -0.08 l0.08 -0.04 l0 0.04 z M20.546 32.16 l0.04 -0.08 c0 -0.04 -0.08 -0.08 -0.12 -0.08 l-0.08 0.04 c0 0.04 0.04 0.08 0.08 0.08 z M20.826 32.24 l0 -0.04 c0 -0.04 0 -0.04 -0.04 -0.04 l-0.04 0 s-0.04 0 -0.04 -0.04 l0 -0.04 l-0.08 0.04 c0 0.08 0.04 0.12 0.12 0.12 l0.08 0 z M21.306 32.28 c0.04 0 0.08 0 0.08 -0.04 s-0.04 -0.04 -0.08 -0.04 s-0.08 0 -0.08 0.04 z M21.706 32.480000000000004 l0.04 -0.04 l0 -0.08 c-0.04 0 -0.08 0.04 -0.08 0.08 z M21.986 32.64 c0.04 0 0.04 -0.04 0.04 -0.04 l-0.04 -0.08 l0.08 -0.08 l-0.04 0 c-0.08 0 -0.08 0.04 -0.08 0.08 s0 0.12 0.04 0.12 z M22.426 32.76 l0.16 -0.08 l0.04 -0.04 l-0.24 0.12 l0.04 0 z M21.186 33.24 l-0.08 -0.04 c0 -0.04 0.08 -0.08 0.12 -0.08 s0.08 0.04 0.08 0.08 z M18.506 34.2 l0 -0.28 l0.04 0.08 c0 0.08 0 0.16 -0.04 0.2 z M23.945999999999998 35.04 l0.08 -0.04 l0.04 -0.04 l-0.04 0 s-0.04 0 -0.04 0.04 z M20.026 35.28 c0.04 0 0.04 0 0.04 -0.04 c0 -0.08 -0.04 -0.08 -0.04 -0.08 l-0.04 0.08 z M22.546 35.72 l0.16 -0.04 l-0.08 -0.04 c-0.04 0 -0.08 0.04 -0.08 0.08 z M16.106 36.04 l0.08 -0.04 l0.16 -0.12 l-0.04 0 c-0.04 0 -0.08 0 -0.12 0.04 l-0.12 0.08 z M15.585999999999999 36.2 l0.4 -0.08 l0.04 -0.04 l-0.04 -0.04 l-0.24 0.08 z M21.786 36.36 l0.08 -0.04 c0 -0.04 0 -0.08 -0.04 -0.08 l-0.04 0.08 l0 0.04 z M19.746 36.6 l0.08 -0.04 l0.04 -0.12 l-0.04 0 l0 0.04 c-0.04 0.04 -0.08 0.08 -0.08 0.12 z M19.146 36.84 l0.16 -0.04 l0.16 -0.08 c0 -0.04 -0.04 -0.04 -0.08 -0.04 s-0.08 0 -0.12 0.04 l-0.12 0.04 l-0.08 0.04 z M18.986 37.08 l0 -0.08 c0 -0.04 -0.04 -0.08 -0.08 -0.08 l-0.04 0 z M19.105999999999998 37 l0.08 -0.04 c0 -0.04 0 -0.04 -0.04 -0.04 l-0.04 0.04 l0 0.04 z M19.866 37.08 l-0.08 -0.04 l0 -0.04 c0 -0.04 0.04 -0.08 0.08 -0.08 l0.08 0.08 c0 0.04 -0.04 0.08 -0.08 0.08 z M19.426 37.16 l0 -0.04 l0.16 -0.08 c0 -0.04 -0.04 -0.04 -0.12 -0.04 s-0.08 0 -0.08 0.08 z M18.626 37.2 l0.08 -0.08 l-0.08 0 l-0.08 0.04 c0 0.04 0.04 0.04 0.08 0.04 z M16.466 37.36 l0 -0.04 c0 -0.04 0 -0.04 -0.04 -0.04 s-0.04 0 -0.04 0.04 z M18.306 37.48 c0.04 0 0.04 0 0.04 -0.04 s-0.08 -0.12 -0.16 -0.12 l-0.04 0 l0.04 0.12 c0.04 0.04 0.08 0.04 0.12 0.04 z M17.826 37.48 c0.04 0 0.08 -0.04 0.08 -0.08 s0 -0.04 -0.04 -0.04 l-0.08 0.04 z M13.626 37.52 c0.04 0 0.08 -0.04 0.12 -0.08 l0.04 -0.04 l-0.04 -0.04 l-0.12 0.08 l-0.04 0.08 l0.04 0 z M17.146 37.84 l0.08 -0.08 s0 -0.04 -0.04 -0.04 l-0.04 0.04 l0 0.08 z M17.426 37.92 l0.08 -0.04 l0 -0.08 c0 -0.04 0 -0.04 -0.04 -0.04 l-0.04 0.04 c-0.04 0 -0.08 0.04 -0.08 0.08 z M18.146 38.04 l-0.12 0 c-0.04 0 -0.08 -0.04 -0.08 -0.08 c0 0 0 -0.04 0.04 -0.04 s0.04 0.04 0.12 0.04 z M16.945999999999998 38.32 l0.08 -0.04 c0 -0.04 0 -0.04 -0.08 -0.04 c-0.04 0 -0.08 0 -0.08 0.04 z M16.426 38.48 l0.12 -0.08 l0.04 -0.08 l-0.04 0 l-0.08 0.04 l-0.04 0.08 l0 0.04 z M15.986 38.48 l0.12 -0.12 l-0.04 0 c-0.04 0 -0.08 0.04 -0.08 0.08 l0 0.04 z M16.546 38.92 c-0.04 0 -0.04 0 -0.04 -0.04 c0 -0.08 0.04 -0.08 0.08 -0.08 s0.04 0 0.04 0.04 z M15.106 39.24 l0.16 -0.08 l0.04 0 c0.08 0 0.08 0 0.08 -0.04 s0 -0.08 0.04 -0.08 l0.04 -0.04 l-0.04 0 c-0.04 0 -0.12 0.04 -0.2 0.12 c-0.08 0.04 -0.12 0.08 -0.12 0.12 z M16.306 39.08 l-0.04 0 c0 -0.04 0.04 -0.04 0.08 -0.08 l0.08 0 l-0.04 0.04 c0 0.04 -0.04 0.04 -0.08 0.04 z M15.786 39.32 c0 0 0.04 0 0.04 -0.04 s0.04 -0.04 0.08 -0.04 l0.04 0 l0 -0.04 l-0.08 -0.04 c-0.04 0 -0.08 0 -0.12 0.04 l-0.04 0.08 z M15.186 39.8 l-0.04 -0.04 l0 -0.08 c0.04 0 0.08 0.04 0.08 0.08 z M35.692 36.52 l-0.08 0 c-0.08 0 -0.16 -0.04 -0.2 -0.08 c-0.08 -0.08 -0.12 -0.12 -0.2 -0.12 l-0.28 0.16 l-0.12 -0.04 c-0.08 -0.04 -0.16 -0.12 -0.16 -0.2 c0 -0.16 -0.12 -0.24 -0.32 -0.24 c-0.16 0 -0.52 -0.2 -0.56 -0.28 c0 -0.04 -0.12 -0.2 -0.28 -0.4 s-0.28 -0.36 -0.28 -0.4 s-0.04 -0.08 -0.08 -0.12 c-0.08 -0.08 -0.12 -0.12 -0.12 -0.16 l0.12 -0.28 l-0.12 -0.16 l0.04 -0.04 c0.04 0 0.04 -0.04 0.04 -0.12 c-0.04 -0.08 -0.04 -0.2 -0.04 -0.28 c-0.04 -0.12 -0.04 -0.2 -0.08 -0.24 l-0.08 -0.44 c0 -0.24 -0.04 -0.56 -0.08 -0.72 l-0.04 -0.32 l0 -0.2 c0 -0.04 0 -0.16 0.04 -0.24 l0.08 -0.12 l-0.12 0.04 c-0.04 0 -0.08 0 -0.08 -0.04 l0.12 -0.12 l-0.04 -0.04 c0 -0.04 -0.04 -0.44 -0.04 -0.92 s-0.04 -0.88 -0.04 -0.92 l0.04 -0.32 l-0.08 -0.2 l0.04 -0.16 c0.04 -0.12 0.04 -0.24 0.04 -0.28 c-0.04 -0.04 -0.12 -3 -0.12 -4.16 c0 -0.76 0.04 -0.92 0.32 -0.92 l0.16 0 c0.24 0 0.68 0.24 0.68 0.36 c0 0 0.04 0.04 0.12 0.04 l0.16 0.08 c0.08 0.16 0.44 0.36 0.52 0.36 l0.04 0 c0.04 0 0.08 0.04 0.12 0.12 s0.12 0.16 0.16 0.16 c0.08 0 0.12 0.12 0.16 0.24 c0 0.08 0.08 0.24 0.16 0.28 c0.12 0.12 0.24 0.76 0.24 1.92 c0 0.6 0.04 0.84 0.08 0.84 l0.12 0.04 l-0.04 0.08 l-0.16 0.24 c0 0.16 0 0.2 0.08 0.24 l0.04 0 c0.12 0 0.36 -0.2 0.36 -0.36 l0 -0.08 c0 -0.04 0 -0.08 0.04 -0.08 c0.04 -0.04 0.04 -0.12 0.04 -0.16 c0 -0.08 0.04 -0.12 0.12 -0.12 c0.04 0 0.08 -0.04 0.08 -0.08 c-0.04 -0.04 -0.08 -0.08 -0.12 -0.08 c-0.08 0 -0.08 -0.04 -0.08 -0.08 l0.04 -0.16 l0.08 -0.08 l-0.04 -0.04 l-0.08 0 c0 -0.08 0.16 -0.12 0.28 -0.12 l0.04 0 c0.08 0 0.2 -0.2 0.2 -0.28 l-0.04 -0.08 l0.04 0 c0.08 0 0.44 -0.56 0.52 -0.8 c0.08 -0.16 0.24 -0.44 0.48 -0.76 l0.16 -0.28 c0 -0.08 0.04 -0.16 0.08 -0.24 l0.16 -0.32 l-0.08 0.04 c-0.04 0.04 -0.08 0.04 -0.12 0.04 c-0.08 0 -0.16 0.04 -0.2 0.12 l-0.12 0.08 l-0.04 -0.08 c0 -0.04 0 -0.04 0.04 -0.04 c0.04 -0.04 0.12 -0.08 0.12 -0.12 c0 -0.08 0.36 -0.64 0.56 -0.84 c0.08 -0.12 0.24 -0.24 0.32 -0.28 l0.48 -0.16 l0.4 0.08 c0.36 0.04 0.92 0.28 1.28 0.56 l0.24 0.12 c0.04 0 0.16 0.08 0.28 0.2 s0.28 0.24 0.36 0.28 c0.24 0.12 0.76 0.8 1.04 1.4 c0.2 0.4 0.24 0.52 0.24 0.76 c0 0.32 0.04 0.56 0.12 0.56 c0.04 0 0.04 0.08 0.04 0.16 l-0.04 0.12 l0.12 0 l0 0.04 c0 0.04 0 0.12 -0.08 0.24 l-0.08 0.2 c0 0.04 0 0.04 0.04 0.04 s0.08 -0.04 0.08 -0.12 s0.16 -0.28 0.28 -0.28 c0.08 0 0.2 -0.08 0.2 -0.12 l-0.04 -0.04 c-0.04 0 -0.08 0 -0.08 -0.04 s0.04 -0.08 0.08 -0.08 s0.12 -0.2 0.12 -0.32 l-0.04 -0.12 l-0.04 -0.04 c0 -0.04 0.04 -0.08 0.08 -0.08 s0.04 -0.04 0.04 -0.04 l0 -0.04 l0.04 -0.04 l0.04 0.04 c0.08 0 0.16 -0.16 0.16 -0.28 l0 -0.04 c0 -0.04 0.04 -0.2 0.12 -0.32 l0.12 -0.12 l0 0.04 c0 0.04 0 0.08 0.04 0.08 l0.04 0 c0.08 -0.04 0.36 -0.36 0.36 -0.52 l0 -0.08 l-0.2 0.16 l0.04 -0.16 c0.12 -0.16 0.24 -0.32 0.32 -0.32 l0.04 0 l-0.04 -0.04 c0 -0.08 0.36 -0.68 0.56 -0.84 l0.04 -0.04 l0 0.04 l-0.12 0.24 l-0.04 0.12 l0.08 -0.04 c0.08 -0.04 0.32 -0.36 0.32 -0.44 l-0.08 -0.08 c0 -0.04 0.04 -0.16 0.16 -0.28 l0.16 -0.16 l0 0.24 c0.04 0 0.08 -0.04 0.08 -0.12 c0 -0.04 0.04 -0.08 0.08 -0.08 c0.08 0 0.08 -0.04 0.08 -0.08 l-0.04 -0.16 c0 -0.16 0.28 -0.44 0.44 -0.44 l0.08 0 l-0.08 -0.24 l0.12 0 c0.04 0 0.04 0 0.04 -0.04 c0 -0.08 0.04 -0.12 0.08 -0.12 s0.08 -0.04 0.12 -0.08 l0.04 -0.04 l0.04 0 c0.04 0 0.2 0 0.36 -0.04 c0.12 -0.04 0.2 -0.04 0.28 -0.04 c0.12 0 0.24 0.04 0.4 0.08 c0.24 0.08 0.48 0.2 0.56 0.28 c0.28 0.24 0.64 0.52 1 0.76 c0.2 0.16 0.36 0.32 0.44 0.48 l0.12 0.28 l0.08 0.16 c0.04 0.04 0.08 0.08 0.08 0.12 l0.08 0.16 c0.24 0.32 0.4 0.88 0.4 1.72 l0 2.68 s0.04 0.4 0.04 0.88 l0.08 1.68 l0.04 0.92 l-0.08 -0.12 c-0.04 -0.04 -0.04 -0.08 -0.08 -0.08 l-0.04 0.12 l0.04 0.08 c0.04 0.04 0.04 0.16 0.04 0.32 l0 0.24 c0 0.28 0 0.44 0.04 0.52 l0.04 0.08 l-0.04 0.16 l-0.08 0.08 l-0.08 -0.04 c0 -0.04 -0.08 -0.04 -0.12 -0.04 s-0.08 0 -0.08 0.08 l0.08 0 c0.08 0 0.08 0 0.08 0.04 s0 0.04 -0.04 0.04 s-0.04 0.08 -0.04 0.2 s-0.04 0.16 -0.08 0.16 s-0.08 0 -0.08 -0.08 c-0.04 -0.04 -0.08 -0.08 -0.16 -0.08 c0 0 -0.04 0 -0.04 0.04 s-0.08 0.08 -0.12 0.12 c-0.08 0 -0.12 0.08 -0.12 0.12 s-0.04 0.08 -0.12 0.08 c-0.04 0 -0.04 0 -0.04 -0.04 l0.04 -0.16 l0.04 -0.08 l-0.08 -0.04 c-0.04 0 -0.08 -0.04 -0.12 -0.08 l-0.04 -0.08 l0 0.04 c0 0.04 -0.04 0.08 -0.12 0.08 l-0.12 0 c-0.12 0 -0.24 -0.04 -0.24 -0.08 s-0.08 -0.2 -0.24 -0.44 l-0.24 -0.44 c0 -0.04 -0.04 -0.08 -0.12 -0.16 c-0.08 -0.04 -0.16 -0.16 -0.2 -0.24 c-0.08 -0.2 -0.2 -0.96 -0.24 -1.28 c0 -0.08 0 -0.24 -0.04 -0.28 c-0.08 -0.24 -0.16 -1.84 -0.16 -3.24 l0.04 -1.44 c0 -0.24 0 -0.48 -0.04 -0.56 l0 -0.16 l-0.32 0.28 c0 0.04 -0.08 0.2 -0.2 0.36 l-0.2 0.32 c0 0.04 -0.16 0.16 -0.32 0.32 c-0.16 0.2 -0.32 0.36 -0.32 0.44 c0 0.2 -0.04 0.28 -0.08 0.28 s-0.16 0.16 -0.28 0.36 l-0.44 0.6 c-0.16 0.2 -0.28 0.4 -0.28 0.52 l0 0.08 l0.04 -0.04 c0 -0.04 0.08 -0.08 0.12 -0.08 s0.08 0.04 0.08 0.08 c0 0.08 -0.12 0.32 -0.28 0.56 c-0.4 0.6 -0.36 0.6 -0.76 1.36 c-0.24 0.44 -0.36 0.68 -0.4 0.68 l-0.04 0 l0.04 -0.16 c0 -0.04 0 -0.04 -0.04 -0.04 s-0.12 0.04 -0.2 0.16 l-0.04 0.16 l0.08 0.28 c0 0.04 0 0.04 -0.04 0.04 l-0.08 -0.08 l-0.08 -0.04 l-0.04 0.08 c0 0.04 -0.04 0.16 -0.08 0.2 c-0.24 0.4 -0.48 1 -0.48 1.16 l0 0.08 l0.04 -0.04 c0.04 -0.08 0.08 -0.16 0.08 -0.24 s0.04 -0.12 0.08 -0.12 c0.08 0 0.08 -0.04 0.08 -0.08 l-0.04 -0.04 l0.04 0 c0.04 0 0.08 -0.08 0.08 -0.12 c0 -0.08 0.04 -0.12 0.04 -0.12 c0.04 0 0.08 0.04 0.08 0.08 s-0.04 0.08 -0.08 0.12 l-0.04 0.16 c0 0.04 -0.04 0.12 -0.08 0.12 l-0.04 0.08 l-0.04 0.16 c-0.08 0.08 -0.16 0.4 -0.36 0.96 c-0.04 0.16 -0.08 0.44 -0.08 0.64 s0 0.4 -0.08 0.48 l-0.08 0.08 l0 -0.04 l-0.04 -0.08 l-0.04 0.08 l-0.12 0.04 l-0.04 0 l0 -0.08 c0 -0.04 0 -0.04 -0.04 -0.04 s-0.08 0 -0.08 0.04 l0 0.04 c0 0.08 -0.08 0.12 -0.16 0.12 l-0.16 0 l0.04 0.04 c0.04 0.04 0.08 0.08 0.08 0.12 l-0.04 0.12 c-0.04 0 -0.12 0 -0.16 -0.04 l-0.16 -0.04 c-0.16 -0.04 -0.2 -0.12 -0.24 -0.32 l0 -0.12 l-0.04 0.04 c-0.04 0.04 -0.08 0.04 -0.12 0.04 c-0.16 0 -0.4 -0.12 -0.4 -0.28 l-0.04 -0.04 l-0.16 0.04 c-0.16 0 -0.32 -0.16 -0.4 -0.36 c0 -0.08 -0.08 -0.16 -0.12 -0.2 c-0.08 -0.04 -0.12 -0.12 -0.12 -0.2 c0 -0.16 -0.08 -0.28 -0.4 -0.6 c-0.08 -0.04 -0.08 -0.12 -0.08 -0.2 c0.04 -0.08 0.08 -0.56 0.08 -1.04 c0.04 -0.52 0.04 -1.04 0.04 -1.16 c0.04 -0.12 0.04 -0.6 0.08 -1.04 c0 -0.72 0.04 -0.92 0.12 -0.92 l0.04 0 c0.04 0 0.08 -0.08 0.12 -0.32 l0 -0.12 c0 -0.08 0 -0.16 -0.04 -0.16 l-0.08 0.16 l-0.04 0.2 c-0.04 -0.16 -0.08 -0.16 -0.08 -0.52 c0 -0.4 0.08 -0.92 0.12 -0.96 l0.04 -0.08 l-0.04 0 l-0.04 -0.04 c0 -0.04 0 -0.24 -0.04 -0.44 l-0.04 -0.32 l-0.24 0.48 l0.04 0.08 c0 0.04 0 0.04 -0.04 0.04 s-0.2 0.16 -0.32 0.4 c-0.2 0.4 -0.28 0.56 -0.36 0.56 l-0.08 -0.04 c-0.08 0 -0.24 0.16 -0.28 0.28 l0.04 0.32 c0 0.2 -0.12 0.56 -0.28 0.68 l-0.04 0 l0.04 -0.04 l0 -0.08 l-0.08 0.08 c-0.16 0.12 -0.28 0.28 -0.28 0.36 l0.04 0 c0.04 0 0.08 -0.04 0.12 -0.08 l0.08 -0.08 l0 0.08 c0 0.12 -0.12 0.4 -0.2 0.4 c-0.04 0 -0.04 0.08 -0.08 0.16 l-0.04 0.24 c-0.04 0 -0.08 0 -0.08 0.04 l-0.36 0.88 l-0.28 0.6 c-0.12 0.28 -0.2 0.4 -0.24 0.4 l-0.04 -0.24 l-0.2 0.32 c-0.04 0 -0.08 0.08 -0.08 0.2 c-0.04 0.12 -0.08 0.24 -0.12 0.24 l-0.04 0.16 l0.16 -0.08 l0.16 -0.16 l0.04 0.04 l-0.28 0.72 c-0.2 0.44 -0.32 1.16 -0.32 1.64 c0 0.28 0 0.52 -0.04 0.56 c-0.04 0.08 -0.28 0.2 -0.52 0.28 z M46.052 23.24 l0.2 -0.2 l-0.04 -0.08 l-0.08 0 c-0.04 0 -0.08 0.08 -0.12 0.16 l0 0.04 c0 0.04 0 0.08 0.04 0.08 z M38.172 23.52 l0.24 -0.08 c0.04 -0.04 0.08 -0.04 0.08 -0.08 l-0.04 0 l-0.2 0.08 z M38.092 24.240000000000002 l0.04 -0.04 l0 -0.12 c-0.04 0 -0.08 0 -0.08 0.08 c0 0.04 0 0.08 0.04 0.08 z M44.932 24.6 l0.08 -0.12 l-0.04 0 l-0.08 0.04 c0 0.04 0 0.08 0.04 0.08 z M37.292 24.880000000000003 c-0.04 0 -0.04 -0.04 -0.04 -0.12 c0.04 -0.2 0.04 -0.2 0.2 -0.2 c0.08 0 0.2 0 0.2 0.04 s-0.28 0.28 -0.36 0.28 z M46.732 24.96 l0.08 -0.08 c0.04 -0.04 0.04 -0.08 0.04 -0.12 l0 -0.04 c-0.04 0 -0.04 0.04 -0.04 0.04 l-0.08 0.16 l0 0.04 z M37.012 25.6 l-0.16 -0.08 l0.08 -0.16 l0.28 -0.4 l0.04 0 l0.04 0.08 c0 0.12 -0.04 0.28 -0.12 0.4 s-0.12 0.16 -0.16 0.16 z M46.852000000000004 25.240000000000002 l0.08 -0.04 l-0.04 -0.08 l-0.08 0.08 c0 0.04 0 0.04 0.04 0.04 z M47.292 25.28 c0.04 0 0.04 0 0.04 -0.08 c0 -0.04 -0.04 -0.04 -0.04 -0.04 l-0.04 0.08 z M47.372 25.6 c0.04 0 0.08 -0.04 0.12 -0.08 s0.08 -0.16 0.08 -0.24 c0 -0.04 0 -0.08 -0.04 -0.08 c-0.08 0 -0.12 0.04 -0.12 0.08 l0.08 0.16 l-0.08 0.12 c-0.04 0 -0.04 0 -0.04 0.04 z M46.052 25.4 l0.04 -0.08 l-0.04 -0.08 l0 0.16 z M46.852000000000004 25.8 c0.12 0 0.28 -0.08 0.36 -0.2 l0.04 -0.12 c0 -0.04 0 -0.04 -0.08 -0.04 c-0.04 0 -0.08 0.04 -0.08 0.12 c-0.04 0.08 -0.12 0.16 -0.2 0.16 l-0.28 -0.12 l0 0.08 c0.04 0.08 0.12 0.12 0.24 0.12 z M36.692 26.2 c-0.04 0 -0.08 -0.04 -0.08 -0.08 l0 -0.08 c0 -0.08 0 -0.12 0.04 -0.12 l0.04 0.04 l0.08 0 l-0.08 -0.04 l-0.04 -0.12 l0.04 -0.08 c0.04 -0.04 0.08 -0.08 0.12 -0.08 s0.04 0.08 0.04 0.2 l0 0.16 c-0.04 0.12 -0.08 0.2 -0.16 0.2 z M45.972 25.759999999999998 c0 -0.04 -0.08 -0.08 -0.12 -0.08 l-0.04 0.04 c0 0.04 0.04 0.04 0.08 0.04 l0.08 0 z M46.652 26.28 l0.04 -0.04 l-0.04 -0.04 c0 -0.08 0 -0.12 0.04 -0.16 l0.04 -0.04 l-0.04 -0.04 c-0.04 0 -0.08 0.04 -0.12 0.08 c0 0.04 0.04 0.24 0.08 0.24 z M46.332 26.64 c0.04 0 0.08 -0.04 0.08 -0.08 l0 -0.04 l-0.04 0 c-0.04 0 -0.04 0 -0.04 0.04 l0 0.08 z M36.412 26.72 l0 -0.12 l0.04 0.08 z M43.732 26.72 l0.08 -0.12 l-0.04 0 c-0.04 0 -0.08 0.04 -0.08 0.08 s0 0.04 0.04 0.04 z M46.692 26.72 l0.08 -0.04 c0 -0.04 0 -0.04 -0.04 -0.04 s-0.04 0 -0.04 0.04 l0 0.04 z M47.052 27 l-0.04 0 l0.04 -0.16 c0.08 -0.12 0.16 -0.2 0.2 -0.2 l0 0.04 c0 0.12 -0.08 0.28 -0.2 0.32 z M45.732 27.52 l0.2 -0.12 l0.08 -0.12 l-0.04 -0.04 c-0.04 -0.04 -0.04 -0.12 -0.04 -0.16 c0 -0.08 0 -0.16 0.04 -0.16 l0.08 -0.12 l0 -0.12 c-0.04 0 -0.12 0.04 -0.16 0.2 c-0.08 0.08 -0.16 0.16 -0.2 0.16 l-0.04 0 l-0.08 0.28 c-0.08 0 -0.08 0.04 -0.08 0.08 l0.08 0.04 l0.16 -0.04 l0.04 0.04 z M46.252 26.880000000000003 c0.04 0 0.08 -0.08 0.08 -0.12 s0 -0.08 -0.04 -0.08 l-0.12 0.2 l0.08 0 z M42.732 27.119999999999997 l-0.04 -0.08 c0 -0.04 -0.04 -0.04 -0.04 -0.04 c0 0.08 0.04 0.12 0.04 0.12 l0.04 0 z M45.452 27.119999999999997 l0.04 -0.08 l0 -0.04 l-0.04 0 c-0.04 0.04 -0.08 0.08 -0.08 0.12 l0.08 0 z M42.692 27.439999999999998 l0.08 -0.12 l-0.08 -0.04 c-0.04 0 -0.04 0.04 -0.04 0.08 s0 0.08 0.04 0.08 z M50.412 27.52 l0.08 -0.12 l-0.04 -0.08 c-0.04 0 -0.04 -0.04 -0.04 -0.04 c-0.04 0 -0.04 0.04 -0.04 0.12 s0 0.12 0.04 0.12 z M39.532 27.439999999999998 l0 -0.04 l-0.04 -0.08 c-0.04 0 -0.04 0.04 -0.04 0.08 z M44.652 27.560000000000002 c0.04 0 0.08 -0.04 0.08 -0.08 s-0.04 -0.08 -0.08 -0.08 s-0.04 0.04 -0.04 0.08 s0 0.08 0.04 0.08 z M44.372 27.64 l0.08 -0.08 c0 -0.04 0 -0.04 -0.04 -0.04 s-0.04 0 -0.04 0.04 l0 0.08 z M45.652 27.880000000000003 c0.04 0 0.08 -0.04 0.08 -0.08 l-0.04 -0.12 l-0.08 -0.04 l-0.04 0.08 l0 0.08 l0.04 0.08 l0.04 0 z M45.891999999999996 27.8 c0.04 0 0.08 -0.04 0.08 -0.08 s0 -0.04 -0.04 -0.04 l-0.04 0 l-0.04 0.08 c0 0.04 0.04 0.04 0.04 0.04 z M39.132 28.08 c0.04 0 0.08 -0.04 0.08 -0.08 s-0.04 -0.12 -0.08 -0.12 s-0.08 0.04 -0.08 0.12 l0.04 0.08 l0.04 0 z M46.332 28.119999999999997 c-0.04 0 -0.08 -0.04 -0.08 -0.08 s0.04 -0.08 0.08 -0.08 l0.04 0 l0 0.04 c0 0.08 0 0.12 -0.04 0.12 z M50.452 28.36 l0.04 -0.08 c0.04 -0.08 0.04 -0.16 0.04 -0.2 s0 -0.08 -0.04 -0.08 s-0.04 0.04 -0.04 0.12 l0 0.24 z M40.092 28.72 c0.04 0 0.08 -0.24 0.08 -0.48 l0 -0.04 l-0.04 0.16 z M44.452 28.32 l0.12 -0.12 l-0.16 0.08 c0 0.04 0 0.04 0.04 0.04 z M43.412 28.36 c0.04 0 0.04 -0.04 0.04 -0.08 l0 -0.04 l-0.08 0.04 c0 0.04 0 0.08 0.04 0.08 z M44.092 28.36 l0.08 -0.04 l-0.12 -0.08 l-0.04 0.04 c0 0.04 0.04 0.08 0.08 0.08 z M44.772 28.6 c0.04 0 0.08 -0.08 0.08 -0.16 l0.04 -0.12 c-0.04 0 -0.08 0.04 -0.12 0.12 l-0.04 0.12 z M45.052 28.48 l0.04 -0.08 l-0.08 -0.04 c-0.04 0 -0.04 0 -0.04 0.04 z M43.252 28.6 l0.04 -0.08 l-0.04 -0.08 l0 0.16 z M45.652 29 c0 -0.12 0.2 -0.48 0.28 -0.48 l0.08 0.04 l-0.04 0.08 c-0.08 0.12 -0.28 0.36 -0.32 0.36 z M44.092 28.759999999999998 l0.04 -0.08 l-0.04 -0.08 l-0.04 0.08 z M35.572 28.759999999999998 l0.04 -0.04 l-0.04 -0.08 c-0.04 0 -0.08 0.04 -0.08 0.08 z M38.852000000000004 28.92 l-0.04 -0.08 c0 -0.04 0.04 -0.08 0.12 -0.08 l0.08 0 z M44.372 29.32 c0.04 0 0.04 -0.08 0.04 -0.12 s0.04 -0.04 0.04 -0.04 l0.04 0 c0.04 0 0.04 0 0.04 -0.08 l0 -0.04 l-0.08 0 l-0.12 0.24 c0 0.04 0 0.04 0.04 0.04 z M45.132 29.16 l-0.08 -0.08 l-0.08 0 l0 0.04 l0.12 0.04 l0.04 0 z M43.772 29.28 c0.04 0 0.04 0 0.04 -0.04 l-0.04 -0.08 l-0.08 0.08 z M44.812 29.48 c0.04 0 0.04 -0.04 0.04 -0.12 c0 -0.04 0 -0.04 -0.04 -0.04 l-0.12 0 l-0.08 -0.04 l-0.08 0.04 l-0.04 0.04 l0.04 -0.04 c0.08 0 0.16 0.04 0.2 0.08 z M44.732 30.240000000000002 c0.04 0 0.12 -0.04 0.2 -0.12 l0.08 -0.16 l0.16 -0.28 c0.08 -0.12 0.16 -0.24 0.16 -0.32 c0 -0.04 -0.04 -0.08 -0.08 -0.08 l-0.12 0.16 z M43.772 29.52 l0.04 -0.04 l-0.04 -0.04 c0 -0.04 -0.04 -0.08 -0.08 -0.08 c0 0 -0.04 0 -0.04 0.04 c0 0.08 0.08 0.12 0.12 0.12 z M38.412 29.6 l0.08 -0.04 l-0.12 -0.08 l0 0.04 c0 0.04 0 0.08 0.04 0.08 z M44.652 29.8 c0 0 0 -0.08 -0.04 -0.12 l-0.04 0 l0.04 0.12 l0.04 0 z M44.012 29.84 l0.04 -0.04 c0.08 -0.04 0.08 -0.08 0.08 -0.12 c-0.04 0 -0.08 0 -0.08 0.08 z M40.012 31.04 l0 -0.04 c0.04 -0.04 0.08 -0.32 0.08 -0.64 c0 -0.28 0 -0.56 -0.04 -0.56 s-0.04 0.04 -0.04 0.08 c0 0.08 0 0.4 -0.04 0.68 c0 0.32 0 0.48 0.04 0.48 z M43.732 30.240000000000002 c0.04 0 0.12 -0.04 0.16 -0.12 l0.04 -0.2 l-0.04 0 s0 0.12 -0.12 0.2 z M43.292 30.08 c0.04 0 0.04 -0.04 0.04 -0.08 l0 -0.04 l-0.08 0.04 c0 0.04 0 0.08 0.04 0.08 z M43.492000000000004 30.28 l0.04 -0.04 l-0.04 -0.08 l0 0.12 z M43.012 30.36 l0.04 -0.04 l0.04 -0.08 l0 -0.04 l-0.08 0.08 l0 0.08 z M44.612 30.68 c0.04 0 0.12 -0.08 0.12 -0.12 c0 -0.08 0 -0.16 -0.04 -0.24 c0 -0.04 -0.04 -0.04 -0.04 -0.04 c-0.04 0 -0.04 0.04 -0.08 0.16 l-0.08 0.2 c0 0.04 0.04 0.04 0.12 0.04 z M43.891999999999996 30.560000000000002 l0.04 -0.08 c0 -0.04 0 -0.04 -0.04 -0.04 l-0.08 0.04 z M44.172 30.6 c0.04 0 0.08 -0.04 0.12 -0.12 c0 -0.04 -0.04 -0.04 -0.08 -0.04 s-0.08 0.04 -0.08 0.08 z M37.852000000000004 30.8 c0.04 0 0.08 -0.04 0.08 -0.08 s-0.08 -0.16 -0.12 -0.16 l0 0.04 l-0.04 0.16 c0 0.04 0 0.04 0.04 0.04 l0.04 0 z M44.412 30.92 c0.04 0 0.08 -0.04 0.08 -0.12 c0 -0.04 0 -0.04 -0.04 -0.04 l-0.04 0 c-0.04 0 -0.04 0.04 -0.04 0.08 s0 0.08 0.04 0.08 z M43.452 30.96 l0 -0.08 c0 -0.08 0 -0.08 -0.04 -0.08 c-0.04 0.04 -0.04 0.08 -0.04 0.12 z M43.852000000000004 30.96 c0.04 0 0.04 -0.04 0.04 -0.08 c0 -0.08 -0.04 -0.08 -0.08 -0.08 l0 0.08 z M43.572 31.08 l0.08 -0.08 l-0.04 -0.04 c-0.04 0 -0.08 0.04 -0.08 0.08 c0 0 0 0.04 0.04 0.04 z M44.172 31.52 c0.04 0 0.08 -0.04 0.12 -0.12 s0.08 -0.2 0.08 -0.28 c0 -0.04 -0.04 -0.08 -0.08 -0.08 s-0.04 0 -0.08 0.16 l-0.04 0.12 c-0.04 0.04 -0.04 0.08 -0.04 0.16 z M43.052 31.72 c0.04 0 0.08 -0.04 0.08 -0.08 s0 -0.08 0.08 -0.12 c0.04 -0.04 0.08 -0.16 0.08 -0.24 l0.04 -0.2 c-0.24 0.24 -0.32 0.4 -0.32 0.56 c0 0.04 0 0.08 0.04 0.08 z M43.812 31.2 l0 -0.04 c0 -0.04 0 -0.08 -0.04 -0.08 s-0.04 0.04 -0.04 0.08 z M40.012 31.48 c0.04 -0.04 0.04 -0.08 0.04 -0.16 l-0.08 -0.12 c-0.04 0 -0.04 0.04 -0.04 0.12 l0.04 0.12 c0 0.04 0 0.04 0.04 0.04 z M37.212 31.92 c0.04 0 0.12 -0.08 0.2 -0.2 l0.12 -0.28 c0 -0.04 -0.04 -0.08 -0.08 -0.08 c0 0 -0.08 0.08 -0.08 0.2 z M36.692 31.92 c0.04 0 0.04 -0.04 0.04 -0.08 c0 0 0 -0.04 -0.04 -0.04 l-0.08 0.04 z M42.932 31.96 l0.08 -0.12 l-0.04 -0.04 l-0.04 0.04 c-0.04 0 -0.04 0.04 -0.04 0.08 s0 0.04 0.04 0.04 z M43.252 32.08 l0.04 -0.16 c-0.04 0 -0.04 0 -0.04 0.04 c-0.04 0 -0.08 0.04 -0.08 0.08 s0.04 0.04 0.08 0.04 z M37.052 32.44 c0.08 -0.2 0.16 -0.32 0.16 -0.4 l0 -0.04 c-0.04 0 -0.08 0.12 -0.12 0.24 z M43.012 32.12 l0.04 -0.04 l-0.04 -0.04 l0.04 0 l-0.04 -0.04 l0 0.12 z M42.891999999999996 32.56 c0.04 0 0.08 -0.04 0.12 -0.12 l0.04 -0.12 l-0.08 0.08 c-0.04 0.04 -0.08 0.08 -0.08 0.12 l0 0.04 z M43.652 32.64 l-0.04 0 l0 -0.04 c0 -0.04 0.08 -0.2 0.16 -0.2 c0.04 0 0.04 0 0.04 0.04 s0 0.08 -0.08 0.16 z M50.772 32.88 l-0.04 -0.08 c0 -0.04 0 -0.04 0.04 -0.04 s0.08 0 0.08 0.04 z M36.292 33.12 l0.04 -0.04 l-0.08 -0.08 l-0.04 0.04 c0 0.04 0.04 0.08 0.08 0.08 z M37.692 33.32 l-0.04 0 l0 -0.12 l0.04 0 l0 0.12 z M50.012 33.4 l0.08 -0.04 l-0.12 -0.04 c0 0.04 0 0.08 0.04 0.08 z M50.372 33.480000000000004 l0.04 -0.08 c0 -0.04 0 -0.04 -0.04 -0.04 l-0.08 0.04 z M43.052 33.96 l0.08 -0.12 l-0.12 -0.16 l0 0.28 l0.04 0 z M64.664 36.88 l-0.04 -0.08 c-0.04 -0.12 -0.28 -0.24 -0.44 -0.24 c-0.04 0 -0.12 0 -0.12 -0.08 c0 -0.04 -0.12 -0.08 -0.28 -0.08 c-0.2 -0.04 -0.2 -0.08 -0.2 -0.16 c0 -0.12 -0.04 -0.16 -0.12 -0.16 c-0.04 0 -0.12 -0.04 -0.12 -0.08 c-0.04 -0.08 -0.28 -0.2 -0.36 -0.2 l-0.04 0 c0 -0.04 -0.12 -0.16 -0.28 -0.32 s-0.32 -0.36 -0.36 -0.52 c-0.08 -0.12 -0.16 -0.32 -0.24 -0.4 l-0.08 -0.28 c0 -0.04 -0.08 -0.12 -0.12 -0.12 l-0.04 -0.04 l0.04 -0.08 l0.08 -0.04 l0.08 0.04 l0.04 0.08 c0.04 0 0.08 -0.04 0.08 -0.12 c0 -0.04 -0.04 -0.08 -0.08 -0.08 l-0.08 0 c0 -0.04 0.04 -0.08 0.12 -0.12 c0.12 0 0.12 -0.04 0.12 -0.2 s0 -0.24 -0.08 -0.24 c-0.08 -0.04 -0.16 -0.12 -0.16 -0.2 l0.04 -0.08 l0 -0.12 c0 -0.04 0 -0.08 0.04 -0.08 s0.04 0.04 0.04 0.08 l0 0.08 c0 0.12 0.04 0.2 0.04 0.2 c0.08 0 0.08 -0.16 0.08 -0.32 l0 -0.16 l-0.04 -0.08 l-0.04 0.08 l-0.04 0.04 c-0.04 0 -0.08 -0.04 -0.08 -0.16 c0 -0.08 0.04 -0.12 0.12 -0.12 c0.04 0 0.04 0 0.04 0.04 l0 0.08 l0.04 -0.04 l0.04 -0.12 c0 -0.12 -0.08 -0.28 -0.16 -0.28 l-0.04 -0.04 c0 -0.04 0.04 -0.04 0.08 -0.04 s0.08 -0.04 0.08 -0.12 c0 -0.12 -0.04 -0.16 -0.04 -0.16 l-0.04 -0.04 l0.04 -0.08 c0.04 -0.04 0.04 -0.16 0.04 -0.28 c0 -0.08 0.04 -0.16 0.08 -0.16 c0 0 0.04 0 0.04 -0.04 s-0.04 -0.04 -0.04 -0.04 l-0.08 0 l0 -0.04 c0 -0.04 0 -0.04 0.04 -0.04 l0.04 -0.08 l0 -0.04 c-0.04 -0.08 -0.04 -0.08 -0.04 -0.52 c0 -0.2 -0.04 -0.32 -0.12 -0.4 c-0.04 -0.04 -0.04 -0.08 -0.04 -0.12 l0.08 0 c0.04 0 0.08 -0.12 0.08 -0.44 l0 -0.28 c0 -0.68 0 -1.68 0.04 -2 l0.04 -0.56 l0 -0.52 c0 -0.16 -0.04 -0.2 -0.12 -0.2 c-0.04 -0.04 -0.08 -0.24 -0.08 -0.36 l0.04 -0.12 c0.04 0 0.04 0.08 0.08 0.2 l0.04 0.12 c0.04 0 0.04 -0.08 0.08 -0.32 c0 -0.24 0 -0.32 -0.08 -0.32 c-0.04 0 -0.08 -0.08 -0.08 -0.16 l0 -0.12 c0 -0.08 0.04 -0.12 0.04 -0.12 l0.08 0.04 c0.04 0 0.04 -0.08 0.04 -0.36 s0 -0.36 -0.08 -0.36 c-0.04 0 -0.08 -0.08 -0.08 -0.16 l0 -0.04 c0.04 0 0.08 0.04 0.12 0.08 l0.04 0.04 l-0.04 -0.24 c-0.08 0 -0.2 -0.12 -0.2 -0.2 l0 -0.08 l0.16 0.16 l-0.04 -0.4 c0 -0.08 -0.04 -0.24 -0.08 -0.28 l-0.04 -0.16 l0.04 -0.16 c0.08 -0.16 0.16 -0.24 0.28 -0.24 l0.12 0.04 c0.04 0.04 0.16 0.08 0.28 0.08 l0.12 0 c0.16 0 0.28 0.04 0.28 0.08 l0.08 0.08 c0.08 0.04 0.24 0.16 0.4 0.32 c0.12 0.12 0.28 0.24 0.32 0.24 l0.08 0 c0.08 0 0.32 0.2 0.32 0.28 c0 0.04 0.08 0.08 0.12 0.12 c0.08 0.04 0.08 0.08 0.08 0.12 s0 0.12 0.04 0.2 l0.12 0.16 l-0.08 -0.28 l0.08 -0.04 c0.04 0 0.08 0.04 0.08 0.12 c0.04 0.76 0.08 1.4 0.12 1.6 l0.04 -0.04 l0.08 -0.04 c0.08 0 0.12 0.08 0.12 0.24 l-0.04 0.24 c0 0.12 0.04 0.2 0.08 0.2 l0.04 0 c0.08 0 0.08 -0.08 0.08 -0.12 l0 -0.08 l0.08 -0.2 c0.08 -0.04 0.16 -0.12 0.16 -0.16 l0.08 -0.16 l0.04 -0.04 l0.04 0.04 c0 0.04 0 0.04 0.04 0.04 s0.04 -0.08 0.04 -0.12 c0 -0.08 0.04 -0.12 0.08 -0.12 l0.04 -0.08 c0 -0.04 0.04 -0.12 0.12 -0.2 l0.04 -0.12 c0 -0.04 -0.04 -0.08 -0.08 -0.08 l-0.04 0.04 c-0.08 0 -0.08 0 -0.08 -0.08 c0.04 -0.04 0.08 -0.08 0.16 -0.08 l0.32 -0.16 l0.2 -0.16 c-0.12 -0.12 -0.16 -0.2 -0.16 -0.24 c0.04 0 0.04 0 0.04 0.04 l0.04 0.04 c0.04 0 0.16 -0.08 0.2 -0.2 l0.08 -0.16 l-0.16 0.12 c-0.04 0.04 -0.04 0.08 -0.08 0.08 l-0.04 0 s0.08 -0.16 0.24 -0.36 l0.24 -0.28 l0.08 0.04 c0.12 0 0.24 -0.12 0.36 -0.28 l0 -0.08 l-0.08 0.08 l-0.12 0.04 l0.2 -0.32 l-0.04 -0.04 l0.04 0 c0.04 0 0.08 0 0.12 -0.04 l0.08 -0.04 l0.12 0.04 c0.04 0 0.2 -0.08 0.48 -0.32 l0.36 -0.2 l0.08 0 l-0.08 -0.04 l-0.24 0.04 l-0.08 0.04 l-0.08 -0.04 l-0.04 -0.04 l0 0.12 c0 0.08 -0.04 0.12 -0.12 0.12 l-0.12 -0.04 l-0.08 -0.04 l0.04 -0.04 l0.08 0 l0.16 -0.08 c0.04 -0.08 0.12 -0.16 0.16 -0.16 s0.16 -0.04 0.24 -0.12 s0.24 -0.16 0.32 -0.16 s0.2 -0.04 0.28 -0.12 l0.16 -0.04 s0.04 0 0.12 -0.08 l0.28 -0.08 c0.04 -0.04 0.2 -0.08 0.28 -0.08 s0.16 0 0.2 -0.04 l0.28 0 c0.16 0 0.32 0 0.4 -0.04 c0.16 -0.04 0.32 -0.04 0.44 -0.04 c0.08 0 0.16 0 0.2 0.04 l0.2 0.04 c0.16 0.04 0.28 0.08 0.36 0.16 s0.16 0.16 0.24 0.16 c0.04 0 0.08 0.04 0.12 0.12 c0 0.08 0.04 0.12 0.16 0.12 c0.08 0 0.12 0 0.12 0.04 l-0.08 0.12 c0 0.08 0.08 0.16 0.2 0.16 c0.04 0 0.08 0.04 0.08 0.08 l0.04 0.04 l0.08 0.04 l-0.04 0.12 c0 0.12 0 0.16 0.04 0.16 l0.08 -0.08 c0.04 0 0.04 0.04 0.08 0.08 s0.08 0.08 0.12 0.08 l0.04 0 c0.04 0 0.08 0.04 0.08 0.12 l-0.08 0.08 c0 0.04 0.04 0.08 0.12 0.12 s0.12 0.12 0.12 0.2 l-0.04 0.08 l-0.04 0 c-0.16 0 -0.24 0 -0.24 0.08 l0 0.04 l-0.08 0.16 c-0.08 0.04 -0.16 0.12 -0.24 0.2 s-0.16 0.08 -0.6 0.12 c-0.52 0 -0.68 0 -0.96 0.12 l-0.16 0 l0.04 -0.08 l0.04 -0.04 l0 -0.04 s-0.08 0.04 -0.12 0.12 c-0.08 0.12 -0.2 0.2 -0.28 0.2 l-0.08 -0.04 l-0.04 -0.04 l0 0.04 c0 0.04 0 0.04 -0.04 0.04 l-0.08 0 l0.12 0.12 l-0.04 0.04 l-0.04 0 l-0.04 -0.04 s-0.04 0 -0.08 0.08 c-0.04 0.04 -0.12 0.12 -0.16 0.12 s-0.08 0 -0.08 0.04 l0 0.04 c0 0.04 0 0.08 -0.04 0.08 s-0.12 -0.04 -0.12 -0.08 l-0.16 0.2 l0.16 -0.04 l-0.08 0.12 l-0.08 0.04 l-0.12 -0.12 l0 0.12 c0 0.12 -0.08 0.24 -0.2 0.24 c-0.04 0 -0.08 0 -0.08 0.04 l0 0.08 c-0.04 0 -0.08 0 -0.08 -0.04 c-0.04 -0.04 -0.08 -0.08 -0.16 -0.08 c-0.04 0 -0.08 0.04 -0.08 0.08 l0.04 0.04 c0.04 0 0.04 0.04 0.04 0.08 s0 0.04 -0.04 0.04 l-0.04 0 l-0.04 0.04 c-0.04 0.12 -0.08 0.16 -0.16 0.16 l-0.12 0 c-0.04 0 -0.08 0 -0.08 0.04 l0 0.08 c0 0.08 -0.04 0.16 -0.08 0.2 c-0.08 0.04 -0.16 0.2 -0.16 0.32 c0 0.04 -0.04 0.08 -0.08 0.08 l-0.08 0.16 c0 0.08 -0.04 0.12 -0.08 0.16 l-0.08 0.04 l0.04 0.12 c0 0.08 0 0.12 -0.08 0.12 c-0.04 0 -0.08 0 -0.08 -0.04 c-0.04 0 -0.08 0.08 -0.16 0.16 l-0.16 0.16 l0.12 0.12 l-0.16 0.16 l-0.04 -0.04 c0 -0.04 -0.04 -0.04 -0.16 -0.04 c-0.08 0.04 -0.12 0.08 -0.12 0.12 s0 0.04 0.08 0.04 l0.04 0 l-0.04 0.12 c-0.04 0.08 -0.08 0.12 -0.12 0.12 s-0.04 0 -0.04 -0.04 l-0.04 0.16 c0 0.16 0 0.28 0.04 0.28 c0 0.04 0 0.08 -0.12 0.16 c-0.08 0.08 -0.12 0.12 -0.16 0.12 c-0.08 0 -0.24 0.16 -0.24 0.28 c0 0.04 0 0.04 -0.04 0.04 s-0.04 0.08 -0.04 0.24 l0 0.16 l-0.04 -0.04 c-0.04 0 -0.08 0.08 -0.08 0.2 l0 0.2 c-0.04 0 -0.08 -0.04 -0.08 -0.08 l0 -0.08 l-0.08 0.12 l-0.08 0.28 c0 0.08 -0.04 0.08 -0.08 0.08 s-0.08 0.04 -0.08 0.08 l0 0.04 c0 0.04 -0.04 0.16 -0.08 0.2 c-0.08 0.08 -0.12 0.16 -0.12 0.2 c0 0.12 -0.08 0.24 -0.12 0.24 s-0.04 -0.04 -0.04 -0.08 l0 -0.04 c0 -0.08 -0.04 -0.12 -0.08 -0.12 l-0.04 0.04 l0.04 0.04 c0.04 0 0.08 0.16 0.08 0.32 c0 0.24 0 0.28 -0.12 0.4 c-0.08 0.08 -0.12 0.08 -0.12 0.12 l0.12 0.08 l-0.08 0.16 l0.12 0.12 c0 0.04 -0.04 0.08 -0.08 0.08 s-0.04 0 -0.04 -0.04 s0 -0.04 -0.04 -0.04 c0 0 -0.08 0.08 -0.08 0.2 l-0.12 0.36 c-0.08 0.08 -0.08 0.28 -0.12 0.48 c0 0.04 -0.04 0.12 -0.08 0.12 c-0.08 0.04 -0.12 0.08 -0.12 0.12 s0 0.08 -0.04 0.08 l-0.04 0 l0.04 0.12 l0.04 0.16 c-0.04 0.04 -0.08 0.72 -0.08 1.04 l0.04 1.08 c0.04 0.04 0.04 0.08 0.08 0.32 l0.12 0.32 c0 0.04 -0.08 0.08 -0.16 0.08 l-0.04 0 c-0.08 0 -0.08 0 -0.08 0.12 l0 0.08 c0 0.08 0 0.12 -0.04 0.16 s-0.08 0.08 -0.08 0.12 s-0.08 0.08 -0.16 0.08 s-0.12 -0.04 -0.12 -0.12 l0 -0.12 l-0.04 0.04 c-0.04 0 -0.04 0.04 -0.04 0.08 l0.08 0.16 z M68.904 22 l0.04 -0.04 c0 -0.04 0 -0.08 -0.04 -0.08 s-0.04 0.04 -0.04 0.08 z M67.78399999999999 22.52 l-0.04 -0.04 l0.04 -0.04 l0 -0.08 l0.04 0 l0.04 0.08 c0 0.04 -0.04 0.08 -0.08 0.08 z M67.584 22.92 l0.08 -0.04 c0.04 -0.04 0.08 -0.08 0.08 -0.12 l-0.04 0 c-0.04 0 -0.12 0.08 -0.12 0.16 z M67.384 22.88 l0 -0.04 l-0.04 0 c0 -0.04 0 -0.08 0.04 -0.08 l0.04 0.08 z M68.024 23.32 l0.08 -0.08 c0 -0.04 -0.04 -0.08 -0.08 -0.08 l-0.08 -0.04 l0.04 0.08 c0.04 0.04 0.04 0.08 0.04 0.12 l-0.04 0 l0.04 0 z M67.184 23.32 l-0.04 0 l0 -0.04 c0.04 -0.04 0.04 -0.08 0.08 -0.08 l0.04 0 l0 0.04 c-0.04 0.08 -0.08 0.08 -0.08 0.08 z M68.704 23.44 l0.16 -0.08 l0.08 -0.08 l-0.16 0.08 c-0.08 0.04 -0.08 0.08 -0.08 0.08 z M66.824 23.44 l0.04 -0.08 l0.04 -0.04 l-0.04 0.08 z M66.864 23.68 c0.04 0 0.16 -0.08 0.24 -0.16 l0.04 -0.08 c-0.04 0 -0.28 0.2 -0.28 0.24 z M67.864 23.52 l0.04 -0.08 l-0.04 0 l-0.08 0.08 l0.08 0 z M72.144 23.76 l0.08 -0.04 l-0.04 -0.08 l-0.12 0.08 s0 0.04 0.08 0.04 z M67.264 24.28 l0.04 -0.12 l-0.04 0 l-0.08 0.08 c0 0.04 0.04 0.04 0.08 0.04 z M70.184 24.48 c0.08 0 0.2 -0.04 0.32 -0.12 l0.08 -0.08 l-0.04 -0.08 l-0.04 0 s-0.04 0 -0.04 0.04 l-0.04 0.04 l-0.08 -0.04 l0.04 0.04 c0 0.04 -0.04 0.08 -0.16 0.08 l-0.12 0.08 z M69.824 24.36 l0.04 -0.04 l-0.08 -0.08 l-0.04 0.04 z M66.224 24.48 c-0.04 0 -0.04 0 -0.04 -0.04 c0 0 0.04 -0.08 0.12 -0.08 l0.08 -0.04 z M62.224 24.52 l-0.04 -0.08 l0.04 -0.04 c0.04 0 0.04 0.04 0.04 0.04 c0 0.04 0 0.08 -0.04 0.08 z M68.264 24.68 l0.04 -0.04 l-0.08 -0.08 l0 0.04 z M69.344 24.72 l0.08 -0.04 c0 -0.04 0 -0.08 -0.04 -0.08 l-0.08 0.08 s0 0.04 0.04 0.04 z M65.104 25.16 l-0.04 -0.16 c0 -0.08 0 -0.16 0.04 -0.16 s0.04 0.08 0.04 0.16 s0 0.16 -0.04 0.16 z M65.944 24.92 c0 0 -0.04 0 -0.04 -0.04 s0.04 -0.04 0.08 -0.04 l0 0.04 c0 0.04 -0.04 0.04 -0.04 0.04 z M66.504 25.28 l0.04 -0.04 c0 -0.04 0.08 -0.12 0.12 -0.16 l0.04 -0.04 l-0.04 -0.04 l-0.12 0.08 c-0.04 0.04 -0.08 0.04 -0.12 0.04 l-0.04 0 l0.04 0.08 z M68.42399999999999 25.28 c0.04 0 0.04 0 0.04 -0.04 l0.04 -0.04 l-0.04 -0.04 l-0.04 0 c-0.04 0 -0.04 0.04 -0.04 0.08 z M68.624 25.4 c0.08 0 0.16 -0.04 0.2 -0.08 l0.08 -0.12 l-0.08 0 c-0.04 0 -0.12 0.04 -0.2 0.12 l-0.04 0.08 l0.04 0 z M62.224 25.36 c-0.04 0 -0.04 -0.04 -0.04 -0.04 l0.08 -0.08 l0.04 0.08 z M68.904 25.52 c0 0 0.08 -0.04 0.08 -0.08 c0.04 0 0.08 -0.08 0.08 -0.12 l0 -0.04 c-0.04 0 -0.08 0 -0.12 0.04 l-0.08 0.16 c0 0.04 0 0.04 0.04 0.04 z M69.144 25.52 l0.12 -0.2 l-0.04 0 l-0.12 0.12 c0 0.08 0 0.08 0.04 0.08 z M65.024 25.759999999999998 c0.04 0 0.04 -0.04 0.08 -0.08 l0.12 -0.08 s-0.04 -0.04 -0.12 -0.04 s-0.08 0.04 -0.08 0.12 l0 0.08 z M68.544 25.880000000000003 c0.04 0 0.08 -0.04 0.16 -0.12 l0.08 -0.16 l-0.04 0 c-0.08 0.04 -0.2 0.24 -0.2 0.28 z M66.064 25.880000000000003 l0.12 -0.04 l0.08 -0.04 l-0.08 -0.04 l-0.08 0 l-0.12 0.08 z M68.064 26.04 l0.08 -0.08 c0.08 -0.04 0.12 -0.12 0.12 -0.16 c0 0 0 -0.04 -0.04 -0.04 c0 0.04 -0.04 0.04 -0.08 0.08 l-0.08 0.16 l0 0.04 z M66.744 25.92 l0.04 -0.04 l-0.04 -0.08 l-0.04 0 l-0.08 0.04 z M65.78399999999999 26 l0.08 -0.04 l-0.24 -0.12 l0.04 0.08 c0 0.04 0.08 0.08 0.12 0.08 z M65.064 26.240000000000002 l0.04 -0.08 l-0.08 -0.2 l0 0.28 l0.04 0 z M67.024 26.119999999999997 c0.04 0 0.08 -0.04 0.08 -0.08 s0 -0.04 -0.04 -0.04 l-0.08 0.04 z M68.624 26.119999999999997 c0.04 0 0.08 -0.04 0.08 -0.08 l-0.04 -0.04 l-0.08 0.08 z M65.904 26.16 c0.04 0 0.04 -0.04 0.08 -0.08 l0 -0.04 c-0.04 0 -0.08 0.04 -0.08 0.08 l0 0.04 z M62.224 26.32 c-0.04 0 -0.08 -0.04 -0.08 -0.12 s0 -0.12 0.04 -0.12 l0.08 0.16 c0 0.04 0 0.08 -0.04 0.08 z M65.584 26.560000000000002 l0.12 -0.04 l0.08 -0.08 s0 -0.08 0.04 -0.12 l0.08 -0.08 c-0.08 0 -0.32 0.24 -0.32 0.32 z M68.224 26.36 c0.04 0 0.08 0 0.08 -0.04 s0 -0.08 -0.04 -0.08 l-0.08 0.04 c0 0.08 0 0.08 0.04 0.08 z M65.064 26.439999999999998 c0.04 0 0.04 -0.04 0.04 -0.08 c0 0 0 -0.04 -0.04 -0.04 s-0.04 0.04 -0.04 0.08 l0 0.04 l0.04 0 z M62.184 26.48 l-0.08 -0.04 l0.08 -0.08 l0.04 0.08 z M62.144 26.759999999999998 l-0.04 -0.08 l0.08 -0.04 l0.04 0.04 z M65.264 27.119999999999997 l0.16 -0.08 l0.04 0.04 l0 -0.04 c0 -0.04 0 -0.04 -0.04 -0.04 s-0.08 0 -0.12 0.04 z M62.104 27.240000000000002 l-0.04 -0.08 l0.04 -0.04 l0.08 0.04 c0 0.04 -0.04 0.08 -0.08 0.08 z M62.144 27.92 c-0.04 0 -0.04 -0.04 -0.04 -0.12 c0 -0.04 0 -0.08 0.04 -0.08 l0.04 0.08 z M66.824 28.119999999999997 l0.04 -0.12 l-0.04 0 l-0.04 0.08 c0 0.04 0 0.04 0.04 0.04 z M67.264 28.16 c0.04 0 0.04 0 0.04 -0.04 l-0.04 -0.12 l-0.04 0 c-0.04 0 -0.04 0.04 -0.04 0.08 l0 0.04 z M66.464 28.439999999999998 c0.04 0 0.04 -0.04 0.04 -0.08 c0 0 0 -0.04 -0.04 -0.04 l-0.04 0 l-0.04 0.04 c0 0.08 0.04 0.08 0.08 0.08 z M66.78399999999999 28.439999999999998 l0.08 -0.04 c0 -0.04 0 -0.04 -0.08 -0.04 l-0.08 0.04 c0 0.04 0.04 0.04 0.08 0.04 z M65.504 28.84 c0.04 0 0.04 -0.04 0.04 -0.08 l-0.04 -0.04 c-0.04 0 -0.04 0 -0.04 0.04 z M66.304 28.92 l0.04 -0.08 c0 -0.04 0 -0.08 -0.04 -0.08 s-0.08 0.04 -0.08 0.12 z M65.664 28.96 l0.04 -0.08 l0 -0.04 l-0.04 0 c-0.04 0.04 -0.08 0.08 -0.08 0.12 l0.08 0 z M66.824 28.92 l-0.04 -0.08 l-0.08 0.04 c0 0.04 0.04 0.04 0.08 0.04 l0.04 0 z M62.104 29.16 l-0.04 -0.04 c-0.04 -0.04 -0.04 -0.08 -0.04 -0.12 l0.04 0 c0.04 0 0.04 0 0.04 0.04 l0 0.12 z M66.384 29.6 c0.04 0 0.08 -0.04 0.08 -0.08 c0 0 0 -0.04 -0.04 -0.04 l-0.04 0 l-0.04 0.12 l0.04 0 z M66.184 30.119999999999997 c0.04 0 0.04 -0.04 0.04 -0.08 l-0.04 -0.04 l-0.04 0.04 c0 0.04 0 0.08 0.04 0.08 z M65.504 31.119999999999997 c0 0 0.04 0 0.04 -0.04 s0 -0.04 -0.04 -0.04 c0 0 -0.04 0 -0.04 0.04 l0 0.04 l0.04 0 z M65.42399999999999 31.36 c0.04 0 0.04 -0.04 0.04 -0.08 c-0.04 -0.08 -0.08 -0.08 -0.08 -0.08 c-0.04 0 -0.04 0.04 -0.04 0.08 s0.04 0.08 0.08 0.08 z M65.264 32.2 c0.04 0 0.08 -0.04 0.08 -0.12 l-0.04 -0.08 l-0.04 0.08 l0 0.12 z M65.224 32.6 l0.12 -0.04 l0.08 -0.12 c0 -0.04 -0.04 -0.04 -0.04 -0.04 c-0.08 0.04 -0.16 0.08 -0.16 0.16 l0 0.04 z M76.37 36.56 c-0.16 0 -0.28 0 -0.4 -0.04 c-1.08 -0.28 -2.04 -1 -2.68 -1.96 l-0.4 -0.52 c-0.2 -0.2 -0.68 -1.36 -0.72 -1.88 l-0.04 -1.28 c0 -0.2 0.16 -0.92 0.24 -1.08 l0.04 -0.24 l0.12 -0.56 c0.08 -0.2 0.12 -0.44 0.12 -0.44 l-0.04 -0.08 c0 -0.16 0.16 -0.56 0.44 -1 c0.16 -0.32 0.24 -0.44 0.28 -0.44 l0 0.12 c0 0.12 0 0.12 0.04 0.12 c0.04 -0.04 0.08 -0.16 0.08 -0.24 l0 -0.04 c0 -0.24 0.24 -0.92 0.4 -1.16 c0.04 -0.04 0.08 -0.08 0.08 -0.12 l0 -0.04 c0 -0.04 0.04 -0.12 0.12 -0.16 c0.24 -0.36 1.04 -1.72 1.04 -1.8 c0 -0.12 0.36 -0.48 0.68 -0.6 c0.16 -0.08 0.24 -0.08 0.32 -0.08 l0.32 0.08 l0.72 0.36 l0.36 0.28 c0.36 -0.44 0.32 -0.6 1 -0.84 c0.2 -0.12 0.32 -0.16 0.44 -0.16 c0.16 0 0.32 0 0.6 0.04 c0.84 0.08 1.56 0.44 2.16 0.96 c1.32 1.2 1.48 1.36 1.8 2.24 c0.2 0.52 0.4 1.64 0.4 2.08 l0 0.16 c-0.16 0.64 -0.44 1.36 -0.56 1.52 l-0.2 0.36 c-0.08 0.2 -0.52 0.96 -0.72 1.2 l-0.64 1 c-0.12 0.12 -0.2 0.28 -0.2 0.28 c0 0.04 -0.08 0.08 -0.16 0.16 c-0.08 0.04 -0.16 0.12 -0.16 0.16 s-0.08 0.16 -0.16 0.24 l-0.48 0.64 c-0.2 0.2 -0.36 0.4 -0.4 0.4 s-0.04 0.04 -0.04 0.08 c0 0.08 -0.04 0.16 -0.12 0.16 l-0.12 0.08 l0 0.04 c0 0.04 -0.04 0.08 -0.08 0.08 s-0.2 0.08 -0.28 0.24 l-0.64 0.6 l-0.4 0.28 l-0.56 0.36 c-0.28 0.24 -1.04 0.44 -1.6 0.44 z M74.57 34.08 c0.24 0 0.4 0 0.72 -0.08 c0.12 0 0.32 -0.08 0.48 -0.16 l0.8 -0.4 c0.12 -0.08 0.36 -0.28 0.56 -0.36 c0.44 -0.24 0.6 -0.4 1.2 -1.08 l0.64 -0.64 c0.08 -0.04 0.12 -0.16 0.12 -0.2 s0.04 -0.08 0.08 -0.08 s0.2 -0.2 0.36 -0.4 c0.12 -0.24 0.36 -0.56 0.48 -0.72 l1.12 -1.68 l0.16 -0.32 c0 -0.04 0.04 -0.2 0.12 -0.32 c0.36 -0.6 0.56 -1.28 0.56 -1.76 c0 -0.2 -0.04 -0.36 -0.16 -0.44 c-0.28 -0.2 -0.8 -0.32 -1.28 -0.32 c-0.28 0.04 -0.52 0.08 -0.68 0.16 c-0.12 0.08 -0.28 0.12 -0.32 0.12 c0 0 -0.2 0.16 -0.44 0.28 c-0.2 0.16 -0.4 0.32 -0.44 0.32 s-0.08 0.12 -0.08 0.24 c0 0.2 -0.04 0.28 -0.08 0.28 s-0.08 -0.04 -0.08 -0.12 c-0.04 -0.12 -0.04 -0.2 -0.12 -0.2 l-0.16 0.04 c-0.24 0 -0.28 -0.04 -0.44 -0.2 c-0.08 -0.16 -0.16 -0.2 -0.28 -0.2 s-0.28 0.08 -0.48 0.32 c-0.12 0.16 -0.28 0.28 -0.32 0.28 l-0.04 0 l-0.08 0.16 c-0.04 0.12 -0.08 0.2 -0.16 0.2 l-0.08 0.04 l0 0.04 c0 0.32 -0.08 0.48 -0.32 0.6 c-0.16 0.08 -0.2 0.12 -0.2 0.24 l0 0.04 c0 0.04 -0.04 0.2 -0.12 0.28 l-0.16 0.32 c0 0.04 -0.04 0.12 -0.12 0.16 c-0.04 0.04 -0.08 0.08 -0.08 0.12 l0.04 0.2 c0 0.12 -0.04 0.2 -0.12 0.32 c-0.12 0.16 -0.2 0.28 -0.2 0.32 l0 0.04 c0 0.08 -0.04 0.32 -0.24 0.92 c-0.2 0.68 -0.36 1.28 -0.36 1.52 l-0.04 0.24 c-0.04 0.16 -0.08 0.72 -0.08 1.12 l0 0.4 c0.04 0.32 0.08 0.32 0.32 0.36 z M73.81 26.36 c0.08 0 0.08 -0.04 0.08 -0.08 l-0.04 -0.08 l-0.08 0.08 z M72.77 28.96 c0 -0.04 0 -0.08 -0.04 -0.12 l-0.04 0.04 c0.04 0.08 0.04 0.08 0.08 0.08 z M72.64999999999999 29.240000000000002 l0.08 -0.04 c0 -0.04 0 -0.08 -0.04 -0.08 s-0.08 0.04 -0.08 0.08 z M90.276 36.56 l0 -0.04 c0 -0.04 -0.08 -0.08 -0.12 -0.12 l-0.08 -0.04 l-0.04 0.04 l0.04 0.08 c-0.04 0 -0.08 0 -0.12 -0.04 l-0.16 -0.08 c-0.04 0 -0.08 -0.04 -0.08 -0.08 l-0.04 -0.04 l0 0.08 l-0.08 -0.04 c-0.08 -0.08 -0.16 -0.08 -0.44 -0.12 l-0.08 0 l0 -0.04 c0 -0.04 -0.12 -0.08 -0.24 -0.08 l-0.08 0 c-0.04 0 -0.16 -0.12 -0.28 -0.28 l-0.48 -0.56 c-0.12 -0.12 -0.24 -0.24 -0.24 -0.32 l-0.04 -0.08 c-0.08 -0.04 -0.2 -0.44 -0.24 -0.68 l-0.08 -0.4 c-0.04 -0.2 -0.08 -0.76 -0.08 -1.08 l0 -0.2 l0.04 -0.08 l-0.04 -0.08 c-0.04 -0.08 -0.04 -0.24 -0.04 -0.4 s0 -0.32 0.04 -0.32 s0.08 -0.04 0.08 -0.08 s0 -0.04 -0.04 -0.04 l-0.04 0 c-0.08 0 -0.08 0 -0.08 -0.04 s0 -0.2 -0.04 -0.32 c0 -0.12 0 -0.28 0.04 -0.36 l0 -0.16 c-0.04 -0.04 -0.08 -0.92 -0.08 -2.28 c0 -0.24 0.04 -0.32 0.04 -0.32 l0.08 0 l-0.04 -0.08 c-0.04 -0.08 -0.04 -0.16 -0.04 -0.24 c0 -0.16 0.04 -0.28 0.08 -0.28 l0.08 0 l0.04 -0.08 c0 -0.08 0 -0.08 -0.04 -0.08 l-0.08 0.08 l-0.04 -0.08 c0 -0.08 0 -0.12 0.08 -0.16 l0.04 -0.08 l-0.04 -0.04 l0 -0.08 l-0.04 0.04 c-0.08 0 -0.12 0 -0.12 -0.04 s0.08 -0.04 0.2 -0.04 l0.04 -0.16 c0 -0.08 -0.04 -0.12 -0.04 -0.12 l-0.12 0 c0 -0.04 0.04 -0.12 0.12 -0.2 l0.12 -0.12 l-0.24 0.12 c-0.04 0 -0.04 -0.04 -0.04 -0.04 l0 -0.04 c0.04 -0.04 0.04 -0.08 0.04 -0.12 l0.08 -0.2 l0.04 -0.16 l-0.04 -0.08 l-0.04 0.04 c-0.04 0 -0.04 -0.04 -0.04 -0.08 c0 -0.08 0 -0.12 0.04 -0.16 l0.04 -0.04 l-0.04 -0.04 l-0.04 -0.16 c0 -0.24 0.08 -0.6 0.2 -0.6 l0.04 0 l0 -0.04 c0 -0.04 0 -0.04 -0.04 -0.04 l-0.16 0.08 l-0.04 0.04 l0.04 -0.2 l0 -0.12 l0.04 0.04 l0.08 0.04 c0.04 0 0.08 0 0.08 -0.04 c0 0 0 -0.04 -0.08 -0.08 c-0.04 0 -0.04 -0.08 -0.04 -0.12 c0.04 -0.04 0.04 -0.08 0.08 -0.08 l0.08 -0.04 l0 -0.12 l0.08 -0.16 l-0.04 -0.04 c-0.08 0 -0.08 0.08 -0.08 0.2 l0 0.04 l-0.04 0 c-0.04 0 -0.08 -0.08 -0.08 -0.12 c0.04 -0.08 0.04 -0.28 0.04 -0.4 l0.08 -0.64 c0 -0.56 0.04 -0.68 0.12 -0.76 s0.08 -0.12 0.08 -0.16 s0 -0.04 -0.04 -0.04 l-0.04 0.04 l0.04 0.04 l-0.04 0.08 l-0.04 0 c-0.04 0 -0.04 -0.04 -0.04 -0.08 l0.08 -0.28 l-0.04 -0.16 c0 -0.12 0.08 -0.28 0.16 -0.32 c0.04 0 0.08 -0.04 0.08 -0.08 l-0.04 0 c-0.04 0 -0.08 -0.04 -0.08 -0.08 l0 -0.08 c0 -0.16 0.08 -0.52 0.16 -0.52 c0 0 0.04 0 0.04 -0.08 c0 -0.04 -0.04 -0.04 -0.12 -0.04 l-0.04 0 l0 -0.16 c0.04 -0.12 0.04 -0.24 0.04 -0.32 c0 -0.04 0.04 -0.08 0.12 -0.08 s0.08 -0.04 0.08 -0.16 s0 -0.16 -0.08 -0.16 c-0.04 0 -0.08 -0.04 -0.08 -0.08 l0.04 -0.12 c0.04 -0.08 0.08 -0.44 0.08 -1.08 c0 -0.12 0 -0.24 0.04 -0.28 l0.04 -0.44 c0 -0.24 0.04 -0.56 0.08 -0.68 c0.04 -0.16 0.04 -0.4 0.04 -0.52 c0 -0.44 0.04 -0.72 0.08 -0.8 l0.04 -0.16 l-0.08 -0.76 l0 -0.32 c0.04 0 0.08 -0.04 0.08 -0.12 c0.04 -0.08 0.04 -0.08 0.16 -0.08 l0.2 0 c0.28 0 0.48 0.08 0.84 0.32 l0.16 0.12 c0.04 0 0.08 0 0.12 0.08 c0 0.04 0.12 0.08 0.2 0.08 c0.16 0.04 0.28 0.12 0.48 0.36 c0.16 0.12 0.28 0.28 0.28 0.32 s0.08 0.08 0.16 0.12 c0.12 0.08 0.16 0.08 0.2 0.48 c0 0.24 0 0.56 -0.04 0.68 c0 0.12 -0.08 0.52 -0.08 0.88 c-0.04 0.36 -0.08 0.76 -0.12 0.88 s-0.08 0.44 -0.08 0.64 c-0.04 0.24 -0.04 0.44 -0.08 0.44 l-0.04 0 l0.04 -0.04 c0 -0.04 0 -0.12 -0.04 -0.12 l-0.04 -0.04 c-0.04 0 -0.12 0.16 -0.12 0.24 l0 0.08 l0.08 -0.12 l0 0.08 c0 0.16 0 0.24 0.04 0.24 l0.04 -0.08 l0 0.16 c0 0.24 0 0.8 -0.04 0.96 c-0.04 0.04 -0.04 0.2 -0.04 0.32 s0 0.2 -0.04 0.2 l-0.04 -0.08 l-0.04 0.04 l0 0.12 c0.04 0 0.08 0.08 0.08 0.16 l0 0.08 l-0.12 -0.04 l-0.08 0.04 l-0.04 0.12 c0.04 0 0.08 0.12 0.08 0.24 s0 0.16 0.04 0.16 l0.04 -0.08 c0.04 0 0.04 0.04 0.04 0.12 s-0.04 0.2 -0.08 0.28 l-0.04 0.08 l0.08 0 c0.04 0 0.04 0 0.04 0.04 c0 0.08 -0.04 0.08 -0.08 0.08 l-0.08 0 c0 0.04 0 0.08 0.04 0.08 c0.04 0.04 0.04 0.12 0.04 0.2 c-0.04 0.08 -0.04 0.24 -0.04 0.32 l0 0.12 l-0.08 -0.04 c-0.04 -0.04 -0.08 -0.08 -0.12 -0.08 l0.04 0.08 c0.04 0.04 0.04 0.12 0.04 0.24 c0 0.2 -0.04 0.4 -0.08 0.4 l0.08 0.08 l0.12 0.04 c0.04 0 0.08 -0.04 0.16 -0.12 s0.2 -0.12 0.24 -0.12 s0.12 -0.04 0.2 -0.12 s0.08 -0.08 0.08 -0.12 l-0.16 0.08 l-0.04 -0.04 l0.12 -0.12 c0.08 -0.04 0.12 -0.08 0.12 -0.12 c0 -0.08 0.52 -0.44 0.6 -0.44 l0.2 -0.12 c0.08 -0.08 0.16 -0.16 0.2 -0.16 l0.16 -0.08 c0.04 -0.04 0.08 -0.04 0.12 -0.04 s0.04 0 0.04 -0.04 s0.04 -0.04 0.08 -0.04 l0.04 0 c0.08 0 0.2 -0.12 0.2 -0.2 l0.04 -0.04 l0.04 0 c0.08 0 0.12 0 0.16 -0.04 l0.04 -0.08 l0.16 0.08 c0.04 0 0.08 0 0.08 -0.04 c0.04 -0.04 0.08 -0.04 0.12 -0.04 l0.04 0 l0.16 -0.08 c0.08 -0.08 0.16 -0.08 0.24 -0.08 s0.12 0 0.2 0.04 l0.08 0.04 l0.04 -0.04 l0.12 0 c0.28 0 1.04 0.04 1.28 0.12 c0.32 0.12 2.08 1 2.08 1.08 c0 0.04 0.2 0.2 0.4 0.36 l0.2 0.24 l0.6 0.56 c0 0.04 0.08 0.2 0.2 0.32 c0.12 0.16 0.2 0.32 0.2 0.36 l0.08 0.04 l0.04 0 l-0.04 0.04 c-0.04 0.04 -0.04 0.12 -0.04 0.16 l0 0.04 c0 0.04 -0.04 0.08 -0.08 0.08 l-0.08 -0.08 l-0.04 0.04 c0 0.04 0 0.08 0.04 0.08 l0.04 0.24 l0 0.2 c0 0.12 0.04 0.16 0.12 0.2 s0.16 0.08 0.16 0.2 l-0.04 0.12 l0 0.44 c0 0.12 -0.04 0.12 -0.12 0.2 l-0.24 0.04 l0 0.04 l0.08 0.2 c0.04 0.04 0.08 0.12 0.08 0.2 c0 0.12 -0.04 0.24 -0.12 0.28 l-0.04 0 l0.08 -0.08 c0 -0.04 -0.04 0 -0.08 0.04 s-0.12 0.04 -0.16 0.04 s-0.04 0.04 -0.08 0.08 l0 0.08 l0.04 -0.04 l0.2 -0.04 c0.04 0 0.08 0 0.08 0.04 c0 0.08 -0.16 0.32 -0.2 0.32 c0 0 -0.04 0.04 -0.04 0.12 c0 0.04 0 0.08 -0.04 0.08 s-0.04 0 -0.04 -0.08 c0 -0.04 -0.04 -0.08 -0.08 -0.08 s-0.04 0 -0.04 0.04 l0.08 0.16 c0.04 0.04 0.08 0.08 0.08 0.12 l-0.08 0 c-0.04 0 -0.08 0.08 -0.08 0.16 c0 0.16 -0.12 0.4 -0.2 0.4 s-0.36 0.36 -0.36 0.48 l0 0.04 c0 0.04 0 0.04 -0.04 0.04 l-0.08 0 l0 0.12 c0 0.12 -0.24 0.52 -0.36 0.56 c-0.04 0.04 -0.08 0.08 -0.08 0.12 l0 0.04 l-0.16 0.28 c0 0.08 -0.16 0.2 -0.24 0.2 c0 0 -0.04 0 -0.04 0.04 s-0.04 0.08 -0.16 0.12 c-0.08 0 -0.12 0 -0.12 -0.04 l0.04 -0.04 l0 -0.08 l-0.36 0.4 l0 -0.04 l-0.08 -0.08 c-0.04 0 -0.08 0.04 -0.08 0.08 l0.24 0.12 l0 0.04 l-0.16 0 l-0.08 -0.04 l-0.04 0.04 c0 0.04 0.04 0.08 0.08 0.08 s0.08 0.04 0.08 0.08 l-0.04 0.04 c-0.08 0 -0.12 0 -0.12 0.04 l0.04 0.04 l0 0.08 c0 0.12 -0.12 0.36 -0.2 0.36 c-0.04 0 -0.04 0.08 -0.04 0.12 l-0.08 0.16 l-0.04 -0.04 c0 -0.04 -0.04 -0.08 -0.08 -0.08 c-0.08 0 -0.16 0.16 -0.16 0.24 l0 0.08 s0 0.04 -0.04 0.04 c-0.04 0.04 -0.08 0.08 -0.08 0.16 l-0.04 0.08 c-0.04 0 -0.08 0.08 -0.12 0.16 s-0.16 0.16 -0.24 0.24 s-0.16 0.16 -0.16 0.2 c0 0.08 -0.08 0.2 -0.2 0.32 l-0.24 0.2 l0 -0.16 l-0.16 0.08 l-0.04 0.12 l0 0.08 c0 0.08 0 0.08 -0.08 0.08 l-0.04 0 c-0.08 0 -0.08 0.04 -0.16 0.12 c-0.04 0.08 -0.12 0.16 -0.16 0.16 l0 -0.12 l-0.08 0.04 c-0.04 0.04 -0.12 0.08 -0.12 0.12 l-0.08 0 c-0.04 0 -0.04 0.04 -0.04 0.04 c0 0.04 0 0.08 0.04 0.08 l0.04 0.04 l-0.16 0 c-0.04 0 -0.12 0.04 -0.2 0.12 l-0.16 0.12 c0 -0.04 -0.04 -0.08 -0.08 -0.08 s-0.08 0.04 -0.08 0.08 s-0.08 0.04 -0.12 0.04 l-0.08 0 l0.04 0.08 c0.04 0.04 0.08 0.08 0.08 0.16 s-0.08 0.2 -0.2 0.24 c-0.08 0.08 -0.16 0.12 -0.16 0.16 s-0.04 0.04 -0.12 0.04 l-0.12 -0.12 l-0.12 0.04 c-0.04 0.04 -0.12 0.08 -0.12 0.12 l-0.16 0.04 c-0.08 0 -0.2 0.04 -0.24 0.08 c-0.04 0.08 -0.12 0.12 -0.16 0.12 l0 -0.04 c0 -0.04 -0.08 -0.08 -0.2 -0.08 l-0.28 0.08 c-0.08 0 -0.12 0.04 -0.12 0.04 c0 0.04 -0.12 0.04 -0.24 0.04 c-0.16 0 -0.2 0.04 -0.2 0.08 l0 0.08 l-0.04 -0.04 c-0.04 -0.04 -0.08 -0.04 -0.12 -0.04 s-0.08 0 -0.08 -0.04 l-0.08 -0.04 l0.16 0.36 z M88.31599999999999 15.96 l0.04 -0.08 l-0.04 -0.04 l0 0.12 z M90.79599999999999 15.96 c0.04 0 0.04 0 0.04 -0.04 s0 -0.04 -0.04 -0.04 s-0.04 0 -0.04 0.04 s0 0.04 0.04 0.04 z M90.79599999999999 16.36 c0.04 0 0.04 -0.08 0.04 -0.2 l0 -0.12 l-0.04 0.04 c-0.04 0.04 -0.04 0.12 -0.04 0.2 c0 0.04 0 0.08 0.04 0.08 z M88.31599999999999 16.28 l0.04 -0.08 l0 -0.08 c-0.04 0 -0.08 0.04 -0.08 0.08 z M88.276 16.56 l0 -0.12 l-0.04 0 l0 0.08 z M90.83599999999998 16.72 l0 -0.08 c0 -0.04 0 -0.04 -0.04 -0.04 s-0.04 0.04 -0.04 0.08 z M90.75599999999999 17.56 c0.04 0 0.04 -0.04 0.04 -0.12 l0 -0.08 s-0.04 0 -0.04 0.04 l-0.04 0.12 c0 0.04 0 0.04 0.04 0.04 z M90.67599999999999 18.76 l0 -0.08 c0 -0.08 0 -0.2 -0.04 -0.24 l-0.04 0 l0 0.12 c0 0.04 0 0.08 -0.04 0.08 l0.04 0.08 z M88.03599999999999 18.6 l0.04 -0.08 s0 -0.04 -0.04 -0.04 l-0.04 0.04 c0 0.04 0 0.08 0.04 0.08 z M87.996 19.04 l0.04 -0.04 l0 -0.08 l-0.08 0.08 c0 0.04 0 0.04 0.04 0.04 z M90.59599999999999 19.04 c0.04 0 0.04 0 0.04 -0.04 c0 -0.08 -0.04 -0.08 -0.04 -0.08 l-0.04 0.08 z M87.916 19.68 l-0.04 0 l0 -0.12 l0.04 0.04 l0 0.08 z M87.87599999999999 20.08 l0.16 -0.2 l-0.08 0.04 c-0.04 0.04 -0.08 0.08 -0.08 0.12 l0 0.04 z M87.79599999999999 21 l0 -0.12 c0 -0.04 0 -0.12 -0.04 -0.12 l0 0.12 z M90.196 22.04 c0.04 0 0.04 -0.04 0.04 -0.12 l0 -0.08 l-0.08 0.16 z M87.59599999999999 22.72 l0.08 -0.08 l-0.08 -0.08 l-0.04 0 l0 0.16 l0.04 0 z M90.15599999999999 22.88 l0 -0.16 l-0.04 0 l0 0.16 l0.04 0 z M87.556 23.16 l0.04 -0.04 c0 -0.08 0 -0.16 -0.04 -0.16 l-0.04 -0.04 z M87.556 23.56 c0.04 -0.04 0.04 -0.08 0.04 -0.12 c0 0 0 -0.04 -0.04 -0.04 l-0.04 0.16 l0.04 0 z M90.356 33.6 l0 -0.04 l0.04 -0.08 c0.04 -0.04 0.12 -0.04 0.16 -0.04 c0.2 0 0.52 -0.2 0.52 -0.28 c0 -0.04 0 -0.08 0.04 -0.08 s0.04 0.04 0.04 0.08 l0.08 0.04 c0.12 0 0.4 -0.2 0.4 -0.28 l0 -0.04 c0 -0.2 0.4 -0.6 0.56 -0.6 c0.08 0 0.16 -0.04 0.28 -0.12 c0.08 -0.04 0.16 -0.12 0.2 -0.12 c0 0 0 -0.04 -0.04 -0.04 l-0.16 0.04 l-0.12 0.08 l-0.04 -0.04 l0.04 -0.12 l0 -0.16 l0.04 0.04 c0.04 0 0.12 0 0.16 -0.04 l0.08 -0.04 l0.04 0.08 c0 0.04 0 0.08 0.04 0.08 s0.16 -0.24 0.16 -0.36 l0 -0.04 l0.08 -0.08 c0.16 -0.04 0.28 -0.2 0.28 -0.28 l-0.04 -0.04 l-0.12 0.04 l-0.08 0.16 c0 0.04 -0.16 0.16 -0.2 0.16 s-0.08 0 -0.08 -0.04 l0.2 -0.24 c0.12 -0.12 0.16 -0.2 0.24 -0.2 l0.08 0.04 l0.16 0.04 c0.04 0 0.12 -0.04 0.12 -0.08 l0.08 -0.04 c0.04 0 0.08 -0.04 0.08 -0.12 l0 -0.08 l-0.08 0.08 l-0.08 0.04 l0 -0.04 c0 -0.16 0.08 -0.24 0.16 -0.24 s0.12 -0.04 0.12 -0.08 l0.04 -0.04 l0.12 0.08 c0.04 0 0.04 -0.04 0.04 -0.12 s0.04 -0.2 0.08 -0.24 s0.08 -0.08 0.08 -0.16 c0 -0.04 0.04 -0.08 0.08 -0.08 s0.04 0 0.04 -0.04 c0 -0.08 0.16 -0.16 0.32 -0.16 l0.08 0 c0.08 0 0.12 -0.08 0.2 -0.2 l0.12 -0.24 c-0.04 0 -0.08 0.04 -0.12 0.12 s-0.08 0.12 -0.12 0.12 s-0.04 0 -0.04 -0.04 l0 -0.08 c0.04 -0.04 0.04 -0.12 0.04 -0.16 s0.04 -0.04 0.12 -0.04 c0.2 -0.04 0.4 -0.12 0.56 -0.32 l0.08 -0.2 l0 -0.04 l-0.04 0 c-0.04 0 -0.16 0.08 -0.2 0.2 c0 0.08 -0.04 0.12 -0.08 0.12 l-0.08 0.04 l-0.04 0.04 l-0.12 -0.08 l0.12 -0.12 c0 -0.04 0.04 -0.12 0.12 -0.2 c0.08 -0.04 0.12 -0.12 0.12 -0.16 s0.04 -0.08 0.08 -0.08 l0.08 -0.08 c0.04 -0.12 0.12 -0.28 0.24 -0.4 l0.04 -0.04 l-0.04 -0.08 l0.16 0.04 l0.08 0.08 l-0.08 -0.16 l-0.08 -0.12 c0 -0.08 0.08 -0.16 0.2 -0.2 c0.08 -0.04 0.16 -0.08 0.16 -0.12 l-0.16 -0.08 c0 -0.04 0.04 -0.08 0.08 -0.08 s0.04 -0.04 0.04 -0.08 l0 -0.16 c0.04 0 0.2 -0.32 0.2 -0.36 c0 -0.08 0.16 -0.32 0.2 -0.32 s0.04 -0.04 0.04 -0.08 l0 -0.04 l-0.04 0.04 c-0.04 0 -0.04 -0.04 -0.04 -0.08 c0 -0.08 0 -0.12 0.04 -0.16 c0.04 0 0.04 -0.12 0.04 -0.2 c0 -0.12 0.04 -0.24 0.08 -0.28 l0.04 -0.08 l-0.04 -0.04 c-0.04 -0.04 -0.04 -0.12 -0.04 -0.16 c0.04 -0.04 0.04 -0.12 0.04 -0.2 c-0.04 -0.08 -0.04 -0.16 -0.04 -0.2 l-0.04 -0.28 c-0.04 -0.2 -0.08 -0.24 -0.2 -0.24 c-0.2 0 -0.4 -0.04 -0.56 -0.08 c-0.08 0 -0.2 0 -0.28 0.04 l-0.16 0.04 l-0.04 -0.08 l0.04 0 l0 -0.04 l-0.08 -0.04 l-0.12 0 l-0.08 0.04 l-0.2 0.04 c-0.08 0 -0.2 0.04 -0.24 0.08 s-0.16 0.08 -0.28 0.12 c-0.08 0.04 -0.12 0.04 -0.12 0.08 l0.04 0.12 l-0.16 0.08 l-0.04 0 c-0.04 0 -0.04 0 -0.04 -0.04 l0 -0.08 l-0.12 0.04 c-0.16 0.08 -0.24 0.12 -0.24 0.2 l0 0.04 l-0.16 0.08 c0 0.04 0 0.04 -0.04 0.04 s-0.04 0 -0.04 0.08 l0.04 0.04 l-0.04 0 s-0.12 0.04 -0.2 0.16 c-0.08 0.08 -0.16 0.12 -0.2 0.12 l-0.08 -0.08 l-0.16 0.12 l-0.12 0.2 l0.04 0 c0.04 0 0.04 0 0.04 0.04 s0 0.08 -0.08 0.12 c-0.04 0 -0.04 0.08 -0.04 0.12 l0.04 0.04 l-0.04 0 s-0.08 0 -0.12 0.08 l-0.08 0.04 l-0.04 -0.04 c0 -0.04 0 -0.08 -0.04 -0.08 c0 0 -0.04 0.08 -0.04 0.2 l0 0.12 c-0.04 0 -0.12 0.04 -0.2 0.12 l-0.04 0.12 c0 0.04 0 0.04 0.04 0.04 l0.08 -0.04 l-0.12 0.24 c-0.08 0.08 -0.16 0.12 -0.2 0.12 c-0.08 0 -0.48 0.68 -0.48 0.8 l-0.12 0.24 c0 0.04 0.04 0.04 0.08 0.08 l0.08 0.08 l-0.08 0.12 c-0.04 0.16 -0.08 0.2 -0.12 0.2 l0.04 -0.2 l-0.04 0 s-0.08 0.12 -0.12 0.28 c-0.08 0.2 -0.12 0.44 -0.12 0.56 l0.04 0.08 l0.08 -0.16 l0 0.08 c0 0.08 -0.04 0.16 -0.12 0.2 l-0.08 0.2 c0 0.08 -0.04 0.12 -0.08 0.12 s-0.08 0.12 -0.08 0.28 s0 0.32 -0.04 0.32 l-0.04 -0.04 c0 -0.04 -0.08 -0.08 -0.16 -0.08 l-0.12 0 c-0.04 0 -0.08 0.04 -0.08 0.08 s-0.04 0.08 -0.08 0.08 l-0.04 0 c-0.12 0 -0.16 0.08 -0.16 0.24 l-0.04 0.16 l0.08 0 l-0.08 0.44 c0 0.16 0.04 0.32 0.08 0.36 l-0.04 0.32 s0.04 0.32 0.04 0.72 c0 0.48 0 0.64 -0.04 0.64 l-0.08 -0.04 c-0.04 0 -0.08 0.04 -0.08 0.12 s0.04 0.08 0.12 0.08 l0.08 0 c0.04 0 0.08 0.04 0.08 0.28 c0 0.08 0 0.12 0.04 0.12 l0.04 0 l0.04 -0.08 l0.04 0.08 l0.04 0 z M90.43599999999999 24.32 l0.08 -0.04 l0.04 -0.08 c0 -0.04 -0.04 -0.04 -0.04 -0.04 c-0.04 0 -0.08 0.04 -0.08 0.12 l0 0.04 z M94.476 24.52 l-0.04 -0.04 l0.04 -0.04 c0.04 -0.04 0.56 -0.2 0.68 -0.2 c0 0.04 -0.32 0.16 -0.48 0.2 c-0.04 0 -0.12 0 -0.12 0.04 z M87.39599999999999 25.36 l0.04 -0.04 l-0.04 -0.08 l-0.04 0 l-0.04 0.04 c0 0.04 0.04 0.08 0.08 0.08 z M92.916 25.560000000000002 c-0.08 0 -0.08 0 -0.08 -0.08 c0 -0.04 0.04 -0.08 0.08 -0.12 l0.04 0 l0.04 0.08 z M87.43599999999999 25.6 l0 -0.08 l-0.04 -0.04 l0 0.12 l0.04 0 z M99.276 26 c-0.04 0 -0.04 -0.04 -0.04 -0.08 l0 -0.04 c0 -0.04 0 -0.04 -0.04 -0.04 s-0.04 -0.08 -0.04 -0.12 c0 -0.08 0 -0.12 0.04 -0.12 l0.04 0 l0.04 0.04 l-0.04 0.04 c0 0.08 0 0.12 0.04 0.12 s0.08 0.04 0.08 0.08 c0 0.08 -0.04 0.12 -0.08 0.12 z M91.716 26.04 c0.04 0 0.12 0 0.12 -0.04 s0 -0.04 -0.04 -0.04 c-0.08 0.04 -0.12 0.04 -0.12 0.08 l0.04 0 z M91.47599999999998 26.52 l0 -0.08 l0.08 -0.04 l-0.08 -0.04 c-0.04 0 -0.08 0.04 -0.08 0.08 z M99.03599999999999 27 l0.16 -0.32 l-0.04 -0.08 c0 -0.08 -0.04 -0.08 -0.08 -0.08 s-0.08 0.08 -0.08 0.24 c0 0.12 0 0.24 0.04 0.24 z M91.076 27.240000000000002 c0.04 0 0.12 -0.12 0.2 -0.24 l0 -0.12 l-0.08 0.04 c-0.04 0.04 -0.04 0.08 -0.04 0.12 c0 0 0 0.04 -0.04 0.04 c-0.04 0.04 -0.04 0.08 -0.04 0.12 l0 0.04 z M99.11599999999999 27.32 l0 -0.08 c0 -0.08 0.04 -0.16 0.08 -0.16 s0.04 0 0.04 0.04 l-0.04 0.16 z M91.31599999999999 27.32 c0 0 0.04 0 0.04 -0.04 l0 -0.04 c-0.04 0 -0.08 0 -0.08 0.04 s0 0.04 0.04 0.04 z M98.83599999999998 27.439999999999998 l0.12 -0.04 c0 -0.04 0 -0.08 -0.04 -0.08 s-0.08 0.04 -0.08 0.08 l0 0.04 z M91.47599999999998 27.8 c-0.04 0 -0.04 0 -0.04 -0.08 l0.04 -0.08 c0.04 0 0.08 -0.04 0.08 -0.08 s0 -0.08 0.04 -0.08 l0.04 0.04 l-0.04 0.12 c-0.04 0.12 -0.08 0.16 -0.12 0.16 z M98.83599999999998 27.72 l0.04 -0.08 l0 -0.04 l-0.08 0.04 c0 0.04 0 0.08 0.04 0.08 z M95.79599999999999 28.08 l0.08 -0.04 c0 -0.04 0 -0.08 -0.04 -0.08 l-0.04 0.08 l0 0.04 z M87.31599999999999 28.4 l0 -0.08 l0.12 -0.16 l-0.04 -0.04 c-0.08 0 -0.16 0.12 -0.16 0.2 l0 0.04 z M95.55599999999998 28.6 l0.08 -0.16 c0.08 -0.08 0.12 -0.2 0.16 -0.2 l0.04 -0.04 l-0.04 0 c-0.12 0 -0.24 0.24 -0.24 0.36 l0 0.04 z M91.196 28.6 c-0.04 0 -0.04 0 -0.04 -0.04 s0.04 -0.04 0.08 -0.08 l0.04 0 z M98.23599999999999 28.72 l0.08 -0.04 l-0.04 -0.08 c-0.04 0 -0.04 0.04 -0.04 0.08 l0 0.04 z M87.31599999999999 28.880000000000003 c0.04 0 0.08 -0.04 0.08 -0.08 l-0.08 -0.12 l-0.04 0.08 c0 0.08 0.04 0.12 0.04 0.12 z M91.11599999999999 28.880000000000003 c-0.04 0 -0.04 -0.04 -0.04 -0.04 c0 -0.04 0 -0.08 0.04 -0.08 l0.04 0 l0 0.04 c0 0.04 0 0.08 -0.04 0.08 z M87.31599999999999 29.36 c0.04 0 0.08 -0.04 0.08 -0.12 c0 -0.04 0 -0.08 -0.04 -0.08 l-0.08 0.16 z M87.31599999999999 29.72 c0.04 0 0.08 0 0.08 -0.04 l0.04 -0.04 l-0.04 0 c-0.04 0 -0.08 0 -0.08 0.04 l-0.04 0.04 l0.04 0 z M97.23599999999999 30.48 l0.08 -0.04 l0 -0.04 c0 -0.04 0 -0.04 -0.04 -0.04 s-0.08 0.04 -0.08 0.08 z M89.79599999999999 30.84 l0.04 -0.04 l0 -0.12 l-0.04 0 l0 0.16 z M93.23599999999999 30.92 l-0.04 -0.08 c0 -0.08 0.04 -0.12 0.12 -0.16 l0.04 0.04 c0 0.04 -0.04 0.2 -0.12 0.2 z M97.196 30.84 l-0.04 -0.04 c0 -0.04 -0.04 -0.04 -0.08 -0.04 l0 0.04 c0 0.04 0.04 0.04 0.08 0.04 l0.04 0 z M89.87599999999999 31.04 l0.08 -0.16 l-0.08 0 l-0.04 0.08 l0 0.04 c0 0.04 0 0.04 0.04 0.04 z M89.11599999999999 31.16 l0.04 -0.04 l-0.04 -0.08 l0 0.12 z M95.83599999999998 31.759999999999998 l0.04 -0.04 c0.04 -0.04 0.04 -0.12 0.04 -0.16 c-0.04 0 -0.04 0.04 -0.04 0.04 c-0.04 0.04 -0.04 0.12 -0.04 0.12 l0 0.04 z M92.87599999999999 31.880000000000003 c0.04 0 0.2 -0.04 0.24 -0.08 l0 -0.04 l-0.12 0 c-0.08 0.04 -0.16 0.08 -0.16 0.12 l0.04 0 z M89.95599999999999 32.36 l0.04 -0.04 l-0.04 0 c-0.04 0 -0.08 -0.08 -0.08 -0.16 l0 -0.12 l-0.04 0 l-0.04 0.08 c0 0.12 0.08 0.24 0.16 0.24 z M94.916 32.44 l0.08 -0.04 c0 -0.04 0 -0.04 -0.04 -0.04 s-0.04 0 -0.04 0.04 l0 0.04 z M89.87599999999999 32.8 l0 -0.2 l-0.04 0.08 c0 0.08 0.04 0.12 0.04 0.12 z M91.79599999999999 32.72 l0.08 -0.04 c0 -0.04 -0.04 -0.08 -0.08 -0.08 l-0.04 0.08 z M95.39599999999999 32.72 l0.08 -0.04 c0 -0.04 0 -0.08 -0.04 -0.08 l-0.04 0.08 l0 0.04 z M95.15599999999999 33.24 c0.04 0 0.08 0 0.08 -0.04 l-0.04 -0.04 l-0.12 0.04 c0 0.04 0.04 0.04 0.08 0.04 z M93.83599999999998 33.56 c0.04 0 0.04 0 0.04 -0.04 l0 -0.04 l-0.08 0.04 c0 0.04 0 0.04 0.04 0.04 z M94.716 33.84 c0.04 0 0.08 -0.04 0.12 -0.08 l0 -0.04 l-0.08 0 c-0.04 0 -0.08 0.04 -0.08 0.08 s0 0.04 0.04 0.04 z M94.196 34.08 l0.16 -0.12 l-0.08 -0.04 c-0.04 0 -0.08 0 -0.08 0.04 l-0.04 0.08 z M93.996 34.04 c0.04 0 0.08 0 0.08 -0.04 l0 -0.04 c-0.04 0 -0.08 0 -0.12 0.04 c0 0.04 0 0.04 0.04 0.04 z M93.83599999999998 34.16 c0.04 0 0.04 0 0.04 -0.04 s0 -0.04 -0.04 -0.04 c-0.08 0 -0.08 0 -0.08 0.04 z M94.11599999999999 34.6 l0.04 -0.08 c0 -0.04 0.04 -0.08 0.08 -0.08 l-0.04 0.08 c0 0.04 -0.04 0.08 -0.08 0.08 z M92.67599999999999 35.519999999999996 c0.08 0 0.12 -0.04 0.12 -0.12 c0 -0.04 0 -0.08 -0.08 -0.08 l-0.16 0.04 l0 0.04 c0 0.04 -0.04 0.04 -0.04 0.04 l-0.04 0 l0.04 0.04 z M92.196 35.92 l0 -0.04 c0 -0.04 0 -0.08 0.04 -0.08 l0.04 0 c0 0.04 0 0.08 -0.04 0.08 z M90.916 35.88 l0.04 -0.04 l-0.04 -0.04 l-0.08 0 c0 0.04 0.04 0.08 0.08 0.08 z M102.02199999999999 18.76 c-0.52 0 -0.68 -0.16 -1.4 -0.56 c-0.48 -0.28 -0.6 -0.36 -0.6 -0.48 c0.32 -1.04 -0.08 -0.68 0.44 -1.64 l-0.08 0 l-0.04 -0.08 c0 -0.16 0.08 -0.28 0.16 -0.48 l0.24 -0.6 l0 -0.08 c0.16 0 0.16 -0.4 0.28 -0.68 c0 -0.16 0.04 -0.48 0.28 -0.72 c0.08 -0.08 0.12 -0.2 0.12 -0.24 c0.04 -0.24 0.16 -0.32 0.16 -0.4 l0.36 -0.72 c0 -0.12 0.48 -0.6 0.48 -0.84 l-0.04 -0.04 c0.16 0 0.6 -0.72 0.72 -0.72 c0 0.12 -0.12 0.08 -0.12 0.32 c0 0.28 -0.44 0.48 -0.44 0.6 c0.08 0.08 0 0.04 0.08 0.08 c0.12 0 0.44 -0.6 0.44 -0.6 l0 -0.04 c0.16 0 0 -0.16 0.16 -0.16 l0.36 -0.24 l0.04 0.04 l-0.04 0.28 c0.16 -0.24 0.28 -0.32 0.44 -0.32 c0.08 0 0.12 0.04 0.12 0.12 l0 0.16 c0.04 0 0.16 -0.12 0.44 -0.24 l-0.28 0.6 c0.04 0 0.08 -0.08 0.16 -0.2 c0 0 0.12 0.16 0.16 0.16 c0.08 -0.16 0.12 -0.24 0.16 -0.24 c0.08 0.08 0.16 0.08 0.16 0.32 c0 0.08 0 0.16 0.04 0.16 l0.16 -0.08 c0 0.08 -0.16 0.24 -0.4 0.76 l0 0.04 c0.12 0 0.24 -0.2 0.48 -0.56 l0 0.12 c0 0.12 -1 1.8 -1 1.96 c0 0.08 -0.08 0.16 -0.16 0.4 l0.04 0.16 c0.04 0 0.04 -0.04 0.04 -0.16 c0.52 -1 0.64 -1.32 0.8 -1.32 l0.04 0.04 c-0.44 1 -1.08 2.16 -1.08 2.32 l0 0.04 c-0.12 0.44 -0.24 0.64 -0.24 0.8 c0 0.28 -0.28 0.64 -0.28 0.76 c0 0.04 0.04 0.08 0.08 0.08 l-0.2 0.44 l0.04 0.08 c0 0.2 -0.16 0.6 -0.24 0.6 l0.04 0.2 l-0.12 0.12 c0.08 0.04 0.16 0.08 0.16 0.2 c-0.16 0.36 -0.48 0.16 -0.48 0.32 l0 0.04 l-0.12 0.08 l-0.08 -0.04 z M102.54199999999999 11.68 c0.04 0 0.08 -0.04 0.08 -0.08 l-0.08 0 l-0.08 0.04 l0.04 0.04 l0.04 0 z M101.42199999999998 13.719999999999999 c0.24 -0.12 0.44 -0.88 0.92 -1.64 c0.08 -0.12 0.12 -0.24 0.12 -0.32 l-0.04 -0.04 c-0.2 0 -0.12 0.32 -0.24 0.32 c-0.08 0 -0.08 0.08 -0.08 0.12 l0 0.04 c0 0.12 -0.2 0.4 -0.36 0.4 l-0.04 0.04 l0.08 0.28 l-0.08 0.08 c-0.08 0 -0.24 0.56 -0.32 0.56 c-0.04 0 -0.08 0.04 -0.08 0.08 s0.04 0.08 0.08 0.08 l0.04 0 z M101.58199999999998 13.36 l0 -0.12 l0.08 -0.12 l0.04 0.04 c-0.04 0.12 -0.04 0.2 -0.12 0.2 z M104.62199999999999 12.239999999999998 l0.08 -0.08 l-0.04 -0.08 c-0.04 0.04 -0.08 0.04 -0.08 0.12 c0 0.04 0 0.04 0.04 0.04 z M101.02199999999999 14.879999999999999 c0.08 0 0.24 -0.32 0.36 -1.04 c-0.2 0.08 -0.2 0.48 -0.36 0.6 c-0.04 0 -0.04 0.04 -0.04 0.08 l0.04 0.08 c-0.08 0.04 -0.08 0.04 -0.08 0.2 z M102.22199999999998 36.52 l-0.08 -0.04 c-0.04 0 -0.12 0 -0.12 -0.08 l0.04 -0.04 l-0.08 -0.04 l-0.08 0.16 l-0.12 -0.04 l-0.04 0.08 c-0.08 0 -0.56 -0.32 -0.72 -0.32 l-0.04 0 c-0.2 0 -0.16 -0.08 -0.48 -0.16 c0 -0.08 -0.52 -0.24 -0.52 -0.36 s-0.32 -0.2 -0.32 -0.36 c0.08 -0.24 0.16 -0.24 0.16 -0.56 c-0.04 -0.44 -0.08 -0.68 -0.08 -1 c0 -0.24 0.04 -0.4 0.08 -0.52 c0 -0.16 -0.04 -0.2 -0.12 -0.36 c0 -0.04 0.08 -0.08 0.16 -0.12 c-0.12 0 -0.16 0 -0.16 -0.4 l0.04 -0.24 l-0.04 -1.2 l0.08 -0.52 l0 -0.16 c0 -0.08 0.08 -0.2 0.08 -0.36 l-0.08 -0.48 c0 -0.12 0.04 -0.16 0.08 -0.16 s0.04 0 0.04 0.04 l-0.08 0.12 c0.08 -0.04 0.16 -0.08 0.16 -0.12 c0 -0.08 -0.08 -0.04 -0.12 -0.16 c0 -0.12 0.24 -0.2 0.24 -0.32 s-0.2 -0.16 -0.2 -0.36 c0.04 -0.2 0.08 -0.28 0.08 -0.48 c0 -0.08 0 -0.24 0.12 -0.44 l-0.12 -0.12 c0.12 -0.12 -0.04 -0.36 0.16 -0.8 l-0.04 0 l0.04 -0.2 l0 -0.52 c0.04 -0.24 0 -0.12 0.12 -0.36 c-0.04 -0.04 -0.08 -0.08 -0.08 -0.36 c0 -0.24 0.08 -0.4 0.08 -0.72 l0.08 -1.2 c0 -0.84 -0.12 -1.4 -0.2 -1.84 c0 -0.12 0.04 -0.08 0.12 -0.2 l-0.04 -0.04 c0.16 -0.28 0.28 -0.2 1.04 -0.32 c0.2 0 0.12 0.08 0.24 0.08 l0.88 0.08 c0.28 0 0.48 0.28 0.64 0.28 l0.04 0 l0.04 0.08 l0 0.16 c0.16 0.6 0.28 0.68 0.28 1.2 l0 0.28 c0 0.72 0.08 0.72 0.2 0.72 l-0.12 0.16 l0.04 0.2 l-0.08 -0.04 l-0.04 0.04 c0 1.28 -0.08 1.24 -0.08 1.72 l0.04 0.04 c-0.08 0 -0.16 0.16 -0.16 0.52 l0.04 0.16 c0 0.08 -0.04 0.08 -0.08 0.12 l0.04 0.16 l-0.08 0.8 l-0.08 0.44 c0 0.44 -0.16 1.6 -0.16 2.36 l0.04 0.36 c0.08 -0.52 0.04 -0.88 0.12 -0.88 l0.08 0 l-0.08 0.24 c0 0.56 0.04 0.36 0.04 0.56 c-0.08 0.16 -0.04 0.56 -0.16 0.56 l-0.04 -0.04 c0 -0.12 0.08 -0.16 0.08 -0.24 l-0.08 -0.04 c-0.04 0 -0.08 0.04 -0.08 0.12 c0.04 0.08 0.04 0.24 0.04 0.36 l0 0.2 c0.04 0 0.08 -0.08 0.16 -0.2 l0 0.08 c0 0.4 -0.16 0.16 -0.16 0.36 s0.04 0.6 0.08 0.6 l0.04 -0.12 l-0.04 -0.08 l0 -0.24 l0.04 -0.12 c0.12 0.08 0.12 0.12 0.12 0.28 c-0.04 0.08 -0.04 0.36 -0.04 0.6 l0.04 0.32 l-0.04 0.28 l-0.08 -0.12 c-0.04 0 -0.04 0.16 -0.08 0.48 l0.04 0.24 l0.08 -0.12 l-0.04 -0.16 c0 -0.08 0.04 -0.2 0.08 -0.2 c0.2 0 0.16 2 0.28 2.12 c0.04 0 0.08 0.08 0.08 0.16 c0 0.2 -0.32 0.4 -0.56 0.4 c-0.12 0 -0.16 0 -0.16 0.08 l0 0.04 c0 0.04 -0.04 0.04 -0.08 0.08 z M103.50199999999998 23.48 l-0.04 -0.2 l0.04 -0.2 c0.04 0 0.08 0 0.12 0.04 l-0.08 0.12 l0.04 0.12 c0 0.08 -0.04 0.12 -0.08 0.12 z M103.30199999999999 27.2 l-0.08 -0.04 l0.12 -0.08 c0 0.04 0 0.12 -0.04 0.12 z M103.10199999999999 28.759999999999998 l0 -0.24 l0.08 -0.08 l0.04 0.04 z M103.10199999999999 29.08 l-0.08 -0.08 l0.04 -0.16 c0.12 0 0.16 0.04 0.16 0.12 c0 0.04 -0.04 0.08 -0.12 0.12 z M103.02199999999999 29.759999999999998 l-0.04 -0.08 c0 -0.04 0.04 -0.2 0.12 -0.2 l0.04 0.04 c0 0.08 -0.04 0.2 -0.12 0.24 z M102.94199999999998 33.04 l0 -0.12 l-0.04 -0.08 s-0.04 0.04 -0.04 0.16 z M102.90199999999999 34.36 l0.04 -0.04 l0.04 -0.16 c0 -0.08 0 -0.12 -0.04 -0.12 l-0.04 0 l0 0.32 z M110.76799999999999 36.52 l-0.04 -0.04 l-0.04 0.04 l-0.04 -0.2 c0 -0.04 -0.04 -0.08 -0.12 -0.08 l-0.08 0 l0.04 0.04 l0.04 0.12 l0 0.04 l-0.12 0.04 c-0.08 0 -0.16 -0.04 -0.16 -0.08 s-0.08 -0.08 -0.2 -0.12 c-0.08 -0.04 -0.2 -0.12 -0.24 -0.2 c-0.08 -0.08 -0.2 -0.12 -0.44 -0.16 c-0.24 0 -0.36 -0.08 -0.48 -0.2 c-0.12 -0.08 -0.16 -0.16 -0.16 -0.2 l-0.2 -0.16 c-0.12 -0.12 -0.2 -0.24 -0.2 -0.28 c0 -0.08 0 -0.12 -0.04 -0.12 s-0.04 -0.32 -0.04 -0.64 c0 -0.36 0 -0.8 -0.04 -1 l-0.04 -0.64 c0 -0.2 0 -0.36 -0.04 -0.4 l0 -0.04 c0.04 0 0.08 -0.16 0.08 -0.28 l-0.08 -0.32 l0.04 -0.04 c0.04 0 0.04 -0.08 0.04 -0.2 l0 -0.72 c0 -0.16 -0.04 -0.2 -0.08 -0.2 l-0.08 0.04 c0 -0.04 0 -0.04 0.08 -0.12 s0.12 -0.2 0.12 -0.6 c0 -0.24 0 -0.4 -0.04 -0.4 l-0.08 0.08 c-0.04 0 -0.08 -0.08 -0.08 -0.2 s0.04 -0.24 0.08 -0.24 c0.08 -0.04 0.08 -0.16 0.08 -0.28 s0 -0.24 -0.08 -0.24 l-0.04 0 l0.04 -0.08 c0.04 -0.08 0.08 -0.2 0.08 -0.28 l0.04 -0.32 c0 -0.28 -0.04 -0.4 -0.08 -0.4 l-0.04 -0.08 c0 -0.04 0 -0.04 0.04 -0.04 s0.08 -0.08 0.08 -0.2 l0.04 -0.44 c0 -0.04 0 -0.04 -0.04 -0.04 l-0.08 0.04 l0.04 -0.04 c0.04 -0.08 0.04 -0.16 0.04 -0.24 c-0.04 -0.04 -0.04 -0.44 -0.04 -0.8 c-0.04 -0.36 -0.04 -1.08 -0.04 -1.6 l0 -0.92 c0.24 0 0.36 0 0.6 -0.08 c0.16 0 0.32 0.04 0.4 0.08 c0.12 0.08 0.28 0.12 0.36 0.12 l0.12 0 c0 0.04 0.04 0.04 0.04 0.04 l0.04 0 c0.08 0 0.12 0.04 0.12 0.08 c0 0.08 0.36 0.32 0.48 0.32 l0.16 0.04 c0 0.04 0.04 0.08 0.12 0.08 c0.12 0.04 0.16 0.08 0.16 0.16 c0 0.04 0.04 0.12 0.12 0.16 l0.08 0.2 c0 0.08 0.04 0.2 0.12 0.32 c0.12 0.16 0.12 0.32 0.12 1.32 l0.04 1.24 l0.04 0.04 c0.04 0 0.08 -0.08 0.24 -0.36 l0.24 -0.48 c0.04 -0.12 0.16 -0.32 0.24 -0.4 l0.04 -0.12 l0 -0.16 c0 -0.24 0.16 -0.52 0.4 -0.6 c0.08 -0.04 0.08 -0.12 0.08 -0.16 c-0.04 -0.04 -0.04 -0.08 -0.08 -0.08 l-0.04 0 s-0.04 0 -0.04 -0.04 l0.08 -0.04 c0.16 0 0.32 -0.12 0.32 -0.28 s0.08 -0.32 0.12 -0.32 s0.12 -0.04 0.16 -0.12 c0 -0.08 0.08 -0.16 0.12 -0.16 s0.04 -0.04 0.04 -0.04 l0 -0.04 l0.08 -0.16 c0.04 -0.08 0.08 -0.2 0.12 -0.2 c0 -0.04 0.04 -0.04 0.04 -0.04 c0.04 0 0.12 -0.04 0.16 -0.12 l0.16 -0.08 c0.08 0 0.16 0 0.16 -0.08 c0.08 -0.08 0.72 -0.24 1.28 -0.24 c0.4 0 1.08 0.08 1.08 0.16 c0 0 0.04 0.04 0.12 0.04 s0.2 0.04 0.28 0.08 c0.32 0.2 0.48 0.28 0.56 0.28 l0.12 0 l0 0.08 c0 0.04 0.04 0.08 0.2 0.08 c0.24 0 0.92 0.44 0.92 0.56 l0.04 0.08 l0.04 0 c0.08 0 0.16 0.08 0.2 0.16 l0.32 0.44 c0.16 0.2 0.2 0.36 0.2 0.44 l-0.04 0.08 l0.08 0 c0.04 0 0.04 0 0.04 0.04 l0 0.12 c0 0.04 0 0.04 0.04 0.04 l0.08 0 c0.04 0 0.08 0.04 0.12 0.12 c0.08 0.08 0.08 0.12 0.08 0.2 l-0.04 0.12 l-0.04 0.08 c0 0.04 0 0.04 0.04 0.04 s0.08 0.08 0.08 0.2 c0 0.08 0.04 0.28 0.12 0.36 l0.08 0.16 l-0.04 0.12 l0.08 0.28 l-0.04 0.08 c-0.04 0 -0.04 0.04 -0.04 0.08 l0.04 0.08 c0.04 0.08 0.04 0.2 0.04 0.32 c0 0.16 0 0.32 -0.08 0.4 l0 0.04 l0.04 -0.04 l0.04 0.48 c0 0.4 -0.04 0.84 -0.08 0.88 s-0.04 0.12 -0.04 0.2 c0 0.04 0 0.08 0.04 0.08 l0.12 0 l-0.04 0.12 l-0.08 0.04 l0 -0.08 l-0.04 0.04 l0.08 0.16 l-0.04 0.08 c-0.04 0.04 -0.04 0.12 -0.04 0.16 l0 0.08 l0.08 0 l0 0.04 c0 0.04 0 0.08 -0.04 0.12 c-0.04 0 -0.08 0.08 -0.08 0.16 l-0.04 0.08 l0.04 0.04 c0.04 0 0.04 0.08 0.04 0.16 c0 0.2 -0.04 0.44 -0.08 0.52 l-0.04 0.12 l0.12 0.28 l-0.08 0.16 l-0.04 0 l0.04 0.04 l0.08 0.2 l-0.12 0.24 l0.04 0.12 l0.04 0.44 c0 0.56 -0.08 1.48 -0.16 1.52 c-0.04 0 -0.04 0.04 -0.04 0.04 l0 0.04 l-0.08 0.08 l0 -0.08 l-0.04 -0.04 l-0.24 0.12 l-0.24 -0.08 l-0.04 0.04 l0.04 0.04 c0.04 0.04 0.04 0.12 0.04 0.12 l-0.04 0 l0 -0.04 l-0.08 0 l-0.04 0.08 l0 0.04 l-0.04 0 c-0.08 0 -0.08 -0.04 -0.08 -0.08 s-0.08 -0.08 -0.12 -0.08 l-0.36 -0.04 l0.04 0.04 c0 0.08 -0.08 0.24 -0.2 0.24 c-0.04 0 -0.04 -0.04 -0.04 -0.08 l0.08 -0.16 l0.04 -0.04 l-0.32 0.04 c-0.04 0 -0.08 -0.04 -0.08 -0.12 l0 -0.08 l-0.04 0.04 c-0.04 0.04 -0.12 0.04 -0.2 0.04 c-0.16 0 -0.36 -0.04 -0.4 -0.16 c-0.04 -0.08 -0.12 -0.2 -0.24 -0.32 s-0.24 -0.28 -0.24 -0.32 l0 -0.04 l-0.04 -0.08 c-0.04 -0.04 -0.04 -0.16 -0.04 -0.48 l0.04 -1.64 c0.04 -0.72 0.12 -1.32 0.16 -1.36 l0.04 -0.08 l-0.08 -0.28 c0 -0.16 0.08 -0.32 0.12 -0.32 c0.04 -0.04 0.08 -0.08 0.08 -0.12 s0 -0.04 -0.04 -0.04 l-0.04 0 c-0.04 0 -0.04 -0.04 -0.04 -0.08 l0.04 -0.08 l-0.04 0 l-0.08 -0.04 c0 -0.04 0.04 -0.12 0.12 -0.16 l0.04 -0.16 l0 -0.36 l0.08 -1.88 c0 -0.32 -0.04 -0.48 -0.12 -0.76 c-0.12 -0.52 -0.24 -0.76 -0.36 -0.8 l-0.08 0 c-0.24 0 -0.72 0.4 -0.84 0.68 c0 0.12 -0.04 0.2 -0.08 0.2 s-0.08 0.04 -0.08 0.12 c0 0.04 -0.04 0.12 -0.08 0.12 l-0.04 0.08 l0 0.04 c0 0.08 -0.04 0.16 -0.08 0.2 l-0.12 0.16 c0 -0.04 0 -0.04 -0.04 -0.04 s-0.12 0.12 -0.24 0.36 l-0.16 0.36 l0 0.08 c0 0.08 -0.04 0.12 -0.12 0.16 s-0.12 0.12 -0.12 0.16 l0 0.04 l0.12 -0.16 l0 0.08 c-0.04 0.04 -0.08 0.08 -0.12 0.08 s-0.12 0.12 -0.2 0.32 c-0.12 0.2 -0.2 0.28 -0.24 0.28 l-0.08 -0.04 l0 0.08 c0 0.16 -0.12 0.4 -0.2 0.4 l-0.04 0 l0.04 0.04 l-0.16 0.48 l-0.24 0.48 c0 0.04 0 0.04 -0.04 0.04 s-0.12 0.16 -0.16 0.36 c-0.12 0.32 -0.16 0.4 -0.32 0.68 l-0.12 0.36 c-0.04 0.12 -0.08 0.24 -0.12 0.24 l-0.04 0.16 c0 0.04 -0.04 0.12 -0.08 0.12 c-0.2 0 -0.24 0.04 -0.24 0.12 s0 0.12 0.04 0.12 l0.12 -0.08 l0.08 -0.04 l0 0.08 l-0.04 0.12 c-0.04 0 -0.12 0.24 -0.2 0.52 l-0.2 0.64 c-0.04 0.08 -0.12 0.48 -0.12 0.64 l-0.16 1 l0.08 0.44 l-0.08 0.28 c-0.08 0.24 -0.08 0.2 -0.08 0.28 c0 0.04 -0.12 0.08 -0.24 0.08 c-0.32 0 -0.6 0.16 -0.6 0.24 l0 0.08 c0 0.04 0 0.08 -0.04 0.08 z M112.88799999999998 23.88 c0 0 0.04 -0.08 0.12 -0.12 l0.12 -0.16 c0 0.04 -0.04 0.08 -0.08 0.12 c-0.04 0.08 -0.12 0.12 -0.16 0.16 z M112.88799999999998 24.08 c-0.04 0 -0.04 0 -0.04 -0.08 l0 -0.04 l0.04 0 l0 0.12 z M114.16799999999998 26.32 l0.04 -0.12 l-0.04 0 c-0.04 0 -0.04 0.08 -0.04 0.08 c0 0.04 0 0.04 0.04 0.04 z M113.84799999999998 26.8 l0.08 -0.12 l-0.08 0 l-0.08 0.08 c0 0.04 0.04 0.04 0.08 0.04 z M115.00799999999998 27.04 l-0.04 -0.04 l0 -0.04 c0 -0.04 0.04 -0.04 0.08 -0.04 l0 0.04 z M119.72799999999998 26.92 l0.08 -0.08 c0 -0.04 0 -0.04 -0.04 -0.04 l-0.08 0.04 z M119.76799999999999 28.04 l0.04 -0.08 l-0.04 -0.08 l-0.04 0.08 z M113.40799999999999 29.439999999999998 l0.04 -0.04 l-0.04 -0.04 c0 -0.04 0 -0.08 0.04 -0.12 s0.08 -0.08 0.08 -0.12 c-0.04 0 -0.08 0.04 -0.12 0.08 l-0.12 0.16 z M112.96799999999998 30.36 l-0.04 -0.08 l-0.08 0.04 c0 0.04 0.04 0.04 0.08 0.04 l0.04 0 z M112.76799999999999 30.759999999999998 c0 -0.04 0 -0.08 -0.04 -0.08 l-0.08 -0.04 l0 0.04 c0 0.04 0.04 0.08 0.08 0.08 l0.04 0 z M119.56799999999998 31.8 l0 -0.24 c0 -0.16 0 -0.24 -0.04 -0.24 l-0.04 0.24 c0 0.16 0.04 0.24 0.08 0.24 z M119.72799999999998 32.04 l0 -0.12 c-0.04 0 -0.04 0.04 -0.04 0.04 l0 0.08 l0.04 0 z M118.40799999999999 35.08 c-0.04 0 -0.08 0 -0.08 -0.04 l0.12 -0.08 l0.08 0.04 c0 0.04 -0.08 0.08 -0.12 0.08 z"></path></g></svg>